<svg width="320" height="240" viewBox="0 0 320 240" fill="none" xmlns="http://www.w3.org/2000/svg" id="sapIllus-UnknownFolder-Demo-Large">
<rect y="60" width="320" height="138" rx="24" fill="var(--sapContent_Illustrative_Color20)"/>
<path d="M173.09 159.216C170.14 158.016 167.05 157.336 164.02 157.506L127.48 159.306L122.74 157.606C120.36 156.586 116.02 156.336 113.05 156.436L74.0299 158.086C70.1299 158.276 69.4299 159.036 71.5699 160.096L76.1499 161.976L58.6599 162.956C54.9699 163.166 53.6199 164.116 54.0899 165.006C54.4199 165.626 55.5899 166.086 57.9099 166.726L108.47 183.466C114.25 185.416 115.71 186.946 128.31 185.416L212.03 175.986C215.22 175.526 215.21 174.086 212.07 172.796L173.14 159.146L173.1 159.226L173.09 159.216Z" fill="var(--sapContent_Illustrative_Color21)"/>
<path d="M90.7828 88.202C83.7673 90.5438 81.6597 96.2811 84.1771 101.882C88.0703 110.546 112.747 163.148 115.264 167.481C118.201 172.525 126.231 174.36 126.231 174.36L90.7828 88.202Z" fill="var(--sapContent_Illustrative_Color22)"/>
<path d="M102.57 72.2586C102.57 72.2586 95.0467 73.8783 97.1543 79.9376C99.2619 85.997 99.6912 87.2752 99.6912 87.2752L102.57 86.4848V72.2683V72.2586Z" fill="var(--sapContent_Illustrative_Color22)"/>
<path d="M148.507 72.1213L146.166 65.4961C145.453 62.1688 142.38 60.2173 139.306 61.1248L102.892 72.0237C99.7985 72.9507 97.7884 75.7803 98.852 79.293L100.872 85.1377L91.0071 88.0941C88.2945 88.904 86.2552 91.0506 85.3478 93.6656C84.5672 95.9098 84.8209 98.3882 85.8161 100.554L115.732 164.407C116.962 167.08 117.557 168.505 120.055 170.437L125.509 173.862C126.856 174.701 128.427 175.101 130.017 175.003L131.334 174.749L232.684 142.091C236.812 140.823 236.255 130.724 235.514 126.363L210.447 59.9246C208.896 54.9874 205.383 55.0166 201.002 56.3339L148.488 69.4673V72.1213H148.507Z" fill="var(--sapContent_Illustrative_Color15)"/>
<path d="M119.596 170.271L125.051 173.696C126.397 174.535 128.446 175.111 130.027 175.013L131.315 174.594L232.704 142.102C236.831 140.833 236.275 130.734 235.533 129.007L210.935 61.2129L92.7244 99.296C89.1434 100.291 87.3481 103.687 88.8702 107.073L115.732 164.426C116.962 167.1 117.089 168.349 119.586 170.271H119.596Z" fill="var(--sapContent_Illustrative_Color16)"/>
<path fill-rule="evenodd" clip-rule="evenodd" d="M204.163 36L206.564 48.0601L204.407 48.4894L202.007 36.4293L204.163 36Z" fill="var(--sapContent_Illustrative_Color22)"/>
<path fill-rule="evenodd" clip-rule="evenodd" d="M217.424 37.9618L212.184 49.0949L210.193 48.168L215.433 37.0348L217.424 37.9618Z" fill="var(--sapContent_Illustrative_Color22)"/>
<path fill-rule="evenodd" clip-rule="evenodd" d="M226.537 48.8611L215.326 53.9934L214.409 51.9932L225.62 46.8608L226.537 48.8611Z" fill="var(--sapContent_Illustrative_Color22)"/>
<path d="M174.15 71.1738L173.867 62.7727C173.193 59.6308 169.778 57.3866 166.275 58.5672L130.885 69.0955C127.87 70.0029 126.446 72.5203 126.807 76.4135L127.675 84.4243L117.176 87.5272C112.834 88.8249 110.346 92.923 111.332 98.2115L122.367 168.699C122.943 172.602 127.744 175.997 131.861 174.719L230.245 143.974C234.226 142.734 238.197 138.822 238.08 132.411L233.338 61.9628C232.557 57.5134 228.508 54.8887 224.303 56.1474L174.169 71.1738H174.159H174.15Z" fill="var(--sapContent_Illustrative_Color26)"/>
<path d="M174.94 71.0478L174.003 63.2712C173.34 60.1781 170.432 58.373 167.495 59.2609L132.661 69.633C129.695 70.5209 128.514 72.6773 128.641 76.8242L129.256 84.7569L119.782 87.5866C115.508 88.8648 113.264 92.8263 114.073 97.8123L124.085 167.9C125.119 171.871 129.227 174.047 133.276 172.778L232.284 141.847C236.197 140.628 238.139 137.252 238.09 132.422L233.211 61.9637C232.44 57.5924 228.459 55.0164 224.322 56.2556L174.96 71.0576H174.95L174.94 71.0478Z" fill="var(--sapContent_Illustrative_Color27)"/>
<path d="M183.457 100.255C181.714 99.9649 179.723 100.11 177.556 100.691C174.787 101.427 172.464 102.651 170.639 104.341C168.813 106.021 167.486 108.023 166.667 110.273L166.521 110.678L170.96 111.891L171.157 111.455C171.914 109.755 172.837 108.355 173.895 107.287C174.932 106.249 176.332 105.492 178.064 105.036C179.153 104.746 180.179 104.673 181.134 104.829C182.067 104.974 182.834 105.347 183.425 105.949C184.017 106.54 184.369 107.349 184.473 108.344C184.556 109.195 184.483 109.983 184.255 110.667C184.017 111.362 183.685 112.015 183.249 112.586C182.803 113.177 182.202 113.872 181.465 114.639C181.465 114.639 181.434 114.67 181.414 114.691C181.279 114.816 181.113 114.992 180.905 115.22C179.889 116.288 179.059 117.222 178.458 118.02C177.825 118.839 177.317 119.814 176.933 120.903C176.55 122.002 176.405 123.247 176.519 124.585L176.56 125.02L181.465 123.714L181.434 123.299C181.362 122.511 181.465 121.774 181.725 121.11C181.994 120.426 182.337 119.814 182.741 119.296C183.177 118.746 183.82 117.999 184.66 117.107C185.769 115.977 186.682 114.95 187.387 114.069C188.113 113.146 188.704 112.067 189.15 110.854C189.596 109.63 189.752 108.272 189.606 106.82C189.43 105.015 188.808 103.532 187.74 102.412C186.671 101.282 185.23 100.566 183.477 100.276L183.457 100.255Z" fill="var(--sapContent_Illustrative_Color16)"/>
<path d="M179.8 127.005C178.836 127.264 178.069 127.762 177.509 128.498C176.949 129.234 176.71 130.033 176.803 130.883C176.897 131.734 177.291 132.408 177.975 132.802C178.66 133.196 179.479 133.279 180.443 133.019C181.408 132.76 182.144 132.273 182.694 131.547C183.243 130.821 183.482 130.012 183.389 129.131C183.295 128.249 182.922 127.648 182.248 127.243C181.574 126.839 180.755 126.756 179.811 127.005H179.8Z" fill="var(--sapContent_Illustrative_Color16)"/>
<path d="M176.057 90.3221C160.024 94.5533 148.513 110.12 150.38 124.711C152.205 138.981 166.205 147.028 181.605 142.932C196.995 138.836 208.538 124.016 207.335 109.601C206.132 95.1859 192.069 86.0909 176.057 90.3221ZM181.149 138.556C168.362 141.957 156.011 135.559 155.295 123.404C153.802 111.343 163.322 98.5148 176.545 95.0199C189.757 91.5251 202.513 98.9815 202.43 110.897C203.477 122.834 193.915 135.154 181.139 138.556H181.149Z" fill="var(--sapContent_Illustrative_Color16)"/>
</svg>
