<svg width="160" height="160" viewBox="0 0 160 160" fill="none" xmlns="http://www.w3.org/2000/svg" id="sapIllus-Phone-with-Icon-Demo-Medium">
<rect y="50.5363" width="160" height="69" rx="12" fill="var(--sapContent_Illustrative_Color20)"/>
<path d="M67.7114 80.6539L40.4294 85.2585C36.912 85.846 35.6644 87.3775 39.3271 89.1501L79.8268 108.914C81.1646 109.567 82.5675 110.089 84.0055 110.471L85.6239 110.898C85.7842 110.938 85.9496 110.933 86.1049 110.883L118.172 100.539C118.954 100.288 118.974 99.1879 118.202 98.9067L68.1373 80.689C68.002 80.6388 67.8567 80.6237 67.7114 80.6488V80.6539Z" fill="var(--sapContent_Illustrative_Color21)"/>
<path d="M120.562 99.7704L90.935 110.757C87.5279 112.023 83.6999 110.888 81.5253 107.975L45.024 59.1722C43.616 57.2891 44.4227 54.5725 46.6323 53.7691L75.0167 45.0469C78.509 43.7765 82.4222 44.9465 84.6469 47.9242L122.035 94.7741C123.333 96.5115 122.596 99.0121 120.567 99.7653L120.562 99.7704Z" fill="var(--sapContent_Illustrative_Color16)"/>
<path d="M122.676 97.0739L122.937 93.4836L44.6431 53.1264L44.3224 57.48L83.765 109.201L122.681 97.0739H122.676Z" fill="var(--sapContent_Illustrative_Color16)"/>
<path d="M120.823 96.4514L91.1955 107.438C87.7884 108.704 83.9604 107.569 81.7858 104.656L45.2845 55.8582C43.8765 53.9752 44.6832 51.2586 46.8928 50.4552L75.2722 41.733C78.7645 40.4625 81.5854 40.5077 84.9024 44.6102L122.291 91.4601C123.588 93.1975 122.852 95.6932 120.823 96.4514Z" fill="var(--sapContent_Illustrative_Color15)"/>
<path d="M119.525 95.9292L90.9751 106.248C87.2773 107.468 84.6268 105.811 83.2189 103.969L46.5872 55.9436C45.2845 54.1259 45.4198 52.1876 47.5793 51.3741L76.2292 42.4762C78.5992 41.5974 81.5604 42.3105 83.0836 44.3391L120.948 91.0685C122.716 93.298 121.519 95.2011 119.53 95.9192H119.525V95.9292Z" fill="var(--sapContent_Illustrative_Color8)"/>
<path d="M98.13 106.921C98.2703 106.524 98.13 106.113 97.8094 105.997C97.4937 105.887 97.1229 106.118 96.9826 106.514C96.8423 106.911 96.9826 107.323 97.3033 107.438C97.619 107.549 97.9897 107.318 98.13 106.921Z" fill="var(--sapContent_Illustrative_Color30)"/>
<path d="M99.984 106.258C100.124 105.862 99.984 105.45 99.6633 105.334C99.3476 105.224 98.9769 105.455 98.8366 105.852C98.6963 106.248 98.8366 106.66 99.1572 106.776C99.4729 106.886 99.8437 106.655 99.984 106.258Z" fill="var(--sapContent_Illustrative_Color30)"/>
<path d="M101.853 105.59C101.993 105.194 101.853 104.782 101.532 104.667C101.216 104.556 100.846 104.787 100.705 105.184C100.565 105.58 100.705 105.992 101.026 106.108C101.342 106.218 101.713 105.987 101.853 105.59Z" fill="var(--sapContent_Illustrative_Color30)"/>
<path d="M107.495 103.742L103.997 105.088C103.607 105.239 103.186 104.968 103.156 104.551V104.46C103.126 104.179 103.296 103.923 103.561 103.828L107.064 102.572C107.47 102.427 107.896 102.728 107.896 103.16C107.896 103.416 107.735 103.647 107.495 103.742Z" fill="var(--sapContent_Illustrative_Color30)"/>
<path d="M110.376 102.467C110.516 102.07 110.376 101.659 110.055 101.543C109.739 101.433 109.369 101.664 109.228 102.06C109.088 102.457 109.228 102.869 109.549 102.984C109.865 103.095 110.235 102.864 110.376 102.467Z" fill="var(--sapContent_Illustrative_Color30)"/>
<path d="M112.23 101.804C112.37 101.407 112.23 100.996 111.909 100.88C111.593 100.77 111.222 101.001 111.082 101.397C110.942 101.794 111.082 102.206 111.403 102.321C111.719 102.432 112.089 102.201 112.23 101.804Z" fill="var(--sapContent_Illustrative_Color30)"/>
<path d="M49.0624 64.1735V65.3988C49.0624 65.8105 49.1977 66.2122 49.4482 66.5386L53.4015 71.7107L53.662 69.3105L49.0574 64.1685L49.0624 64.1735Z" fill="var(--sapContent_Illustrative_Color16)"/>
<path d="M49.0624 64.1735L50.1246 63.8622L54.2182 69.0744C54.5038 69.436 54.6591 69.8879 54.6591 70.3499V71.3491L53.4015 71.7107V70.5507C53.4015 70.0988 53.2512 69.6519 52.9806 69.2954L49.0624 64.1685V64.1735Z" fill="var(--sapContent_Illustrative_Color15)"/>
<path d="M70.8931 48.291L60.2759 51.7206C59.0283 52.1776 57.6303 51.8311 56.7385 50.8419L54.6641 48.5421L70.1866 43.9023L71.8751 45.7753C72.762 46.7595 72.6267 47.9094 70.8931 48.291Z" fill="var(--sapContent_Illustrative_Color15)"/>
<path d="M65.7473 48.1452L61.5686 49.4106C61.1928 49.5261 60.7769 49.3855 60.5264 49.0641C60.346 48.8382 60.4362 48.5168 60.7017 48.4365L64.9957 47.1409C65.3264 47.0405 65.6972 47.156 65.9327 47.4322C66.1481 47.6832 66.0529 48.0548 65.7473 48.1502V48.1452Z" fill="var(--sapContent_Illustrative_Color30)"/>
<path d="M67.6412 47.5877C68.0471 47.6128 68.3777 47.3667 68.3777 47.0303C68.3777 46.6938 68.0471 46.4026 67.6412 46.3775C67.2354 46.3524 66.9047 46.5984 66.9047 46.9349C66.9047 47.2713 67.2354 47.5626 67.6412 47.5877Z" fill="var(--sapContent_Illustrative_Color30)"/>
<path d="M97.8644 78.851L82.8644 84.021C80.5594 84.816 77.6444 84.171 76.4194 82.596L70.1794 74.566C69.3294 73.471 69.5794 72.176 70.7994 71.286L77.5744 66.326C77.7994 66.166 78.1094 66.071 78.4544 66.061L88.6394 65.771C90.4094 65.721 92.0994 66.346 92.9794 67.366L99.4294 74.841C100.694 76.306 99.9994 78.111 97.8644 78.851ZM73.5194 75.031L78.8244 81.781C79.3494 82.451 80.5894 82.726 81.5744 82.391L96.5494 77.296C97.4694 76.986 97.7744 76.211 97.2344 75.581L91.7744 69.191L87.4944 74.346C86.6544 75.366 84.9344 75.931 83.0994 75.781L73.5244 75.026L73.5194 75.031ZM72.3444 73.206L83.2944 74.086C84.0694 74.151 84.8144 73.906 85.1794 73.476L90.1444 67.601C89.7894 67.446 89.3594 67.351 88.9244 67.371L79.2194 67.661L72.8244 72.411C72.5244 72.636 72.3644 72.926 72.3544 73.216L72.3444 73.206Z" fill="var(--sapContent_Illustrative_Color13)"/>
</svg>
