<svg width="45" height="45" viewBox="0 0 45 45" fill="none" xmlns="http://www.w3.org/2000/svg" id="sapIllus-Ice-Cream-Demo-ExtraSmall">
<path d="M27.1215 21.502C27.1215 21.502 27.2422 21.502 27.269 21.502C27.4969 21.4617 27.3495 21.1131 27.3629 20.5902C27.3629 20.4561 27.4835 20.3354 27.6042 20.3086C27.9663 20.2415 28.5295 20.1611 28.8379 20.1208C28.9586 20.1074 29.039 20.0002 29.039 19.8795C29.0256 19.6247 28.972 19.1822 28.9049 18.7263C28.7976 18.1363 28.6904 17.5732 28.5697 17.0368H28.677L28.5294 16.6882C28.5294 16.6882 28.5295 16.6882 28.4892 16.6882C28.2613 15.7093 28.0199 14.8646 27.8054 14.1941C27.9261 14.1807 28.0468 14.1673 28.1674 14.1405C28.7977 15.9641 29.2536 18.0827 29.2536 18.0827C29.2536 18.0827 29.2535 18.0827 29.2803 18.0827C29.4546 18.0693 29.4815 17.895 29.4681 17.7341C29.4547 17.4793 29.4279 17.2916 29.401 17.0368C29.3742 16.7954 29.3206 16.6748 29.5485 16.6211C29.7765 16.5675 30.4469 16.5273 30.8224 16.5139C30.9565 16.5139 31.0504 16.3798 31.037 16.2591C30.9431 15.4009 30.7822 14.6098 30.6079 13.9125H30.6883L30.5945 13.5371C30.5945 13.5371 30.5676 13.5371 30.5274 13.5371C30.3129 12.7057 30.0715 12.0085 29.8837 11.4855C29.9776 11.4855 30.0581 11.4855 30.1654 11.4855C30.4872 12.2767 30.8894 13.3628 31.2246 14.7305C31.2246 14.7305 31.466 14.8109 31.4258 14.4891C31.4124 14.288 31.3856 14.1405 31.3319 13.5907C31.3319 13.4835 31.399 13.3896 31.5197 13.3896C31.6538 13.3896 31.8549 13.3896 32.0426 13.3762C32.3108 13.3762 32.5253 13.1348 32.4851 12.8532C32.4448 12.5448 32.3778 12.0889 32.2706 11.566H32.3376L32.2035 11.2039C32.2035 11.2039 32.2035 11.2039 32.1767 11.2039C32.0426 10.681 31.8682 10.1044 31.6269 9.51443C31.7207 9.51443 31.8012 9.51443 31.8951 9.51443C32.1632 10.0776 32.4851 10.8687 32.7667 11.861C32.7667 11.861 32.9947 11.9548 32.9544 11.633C32.9544 11.5526 32.9008 11.2039 32.9142 11.1235C32.9142 10.7078 33.5444 10.7078 33.2628 9.6217C33.2628 9.58147 32.941 9.54124 32.4583 9.52784C32.4181 9.42056 32.3912 9.3267 32.351 9.21943C32.8069 9.21943 33.2628 9.21943 33.6114 9.25966C33.9199 9.29988 33.8662 9.07193 33.826 8.91103C33.7723 8.64285 33.5444 7.87854 33.3835 7.48969C33.2628 7.19469 33.4371 7.22151 33.5578 7.44946C33.8393 7.959 34.1076 8.65626 34.1076 8.65626C34.1076 8.65626 34.349 8.79035 34.2149 8.20036C34.0808 7.59696 34.0942 7.31537 34.2149 7.11424C34.4965 6.65834 34.8852 6.02812 35.073 5.77335C35.368 5.37108 35.1669 4.98223 34.8585 5.0895C35.3546 4.84814 35.9446 5.33086 35.7301 5.89403C35.7301 5.89403 29.0658 23.8217 28.9719 24.0899C29.1731 24.6799 29.1731 24.9615 28.7842 25.8733C28.3953 26.7851 28.1004 27.4019 28.1004 27.4019L25.7136 25.7258C27.497 23.5669 27.2288 22.5613 26.5048 21.7835C24.6275 19.7186 21.6239 18.2972 20.3501 17.9486C19.8271 17.8145 19.8942 17.5061 21.2082 17.9754C21.2082 17.9754 21.2082 17.9754 21.1948 17.9754C21.3557 18.0827 21.3557 18.0961 21.7445 18.2034C21.758 18.2034 21.7714 18.2034 21.7982 18.2034C22.053 18.3106 22.3346 18.4313 22.643 18.5788C22.7771 18.6459 22.9246 18.7129 23.0721 18.7934C23.2196 18.8738 23.367 18.9543 23.5279 19.0481C24.6141 19.6918 25.727 20.5097 25.727 20.5097L26.4109 20.3622C26.25 19.2493 26.0354 18.2436 25.8209 17.3988C25.955 17.3854 26.0891 17.3586 26.2231 17.3318C26.8131 19.3968 27.1215 21.4617 27.1215 21.4617V21.4886V21.502Z" fill="var(--sapContent_Illustrative_Color16)"/>
<path d="M28.5831 13.7395C28.4222 13.7663 28.2478 13.7797 28.0601 13.8066C27.8456 13.2166 27.6042 12.6802 27.3628 12.2779C27.1885 11.9964 26.9874 12.0768 27.1483 12.3316C27.1483 12.3316 27.3896 12.8679 27.7115 13.8468C27.041 13.9406 26.3035 14.0613 25.5392 14.2222C25.3247 13.7931 25.0967 13.4311 24.8822 13.1629L23.89 12.9886C28.6769 9.52912 34.7645 5.1176 34.7645 5.1176C34.7913 5.09078 34.8182 5.07737 34.8584 5.06396C35.1668 4.9701 35.3679 5.34555 35.0729 5.74782C34.8852 6.00259 34.4964 6.64621 34.2148 7.0887C34.0807 7.28984 34.0673 7.57142 34.2148 8.17482C34.3489 8.76481 34.1075 8.63073 34.1075 8.63073C34.1075 8.63073 33.8393 7.92005 33.5577 7.42393C33.4236 7.19598 33.2628 7.16916 33.3835 7.46415C33.5444 7.85301 33.7723 8.61732 33.8259 8.88549C33.8661 9.0464 33.9198 9.27435 33.6114 9.23412C33.2628 9.1939 32.8069 9.18049 32.351 9.1939C32.1498 9.1939 31.9487 9.1939 31.761 9.1939C31.6805 9.03299 31.6134 8.91231 31.5598 8.80504C31.4257 8.55027 31.238 8.61732 31.3453 8.83186C31.3989 8.95254 31.4525 9.07322 31.5062 9.1939C31.171 9.20731 30.876 9.23413 30.7017 9.24753C30.286 9.30117 30.3262 9.51571 30.7419 9.48889C31.0369 9.47548 31.3319 9.46208 31.6135 9.46208C31.8548 10.0655 32.0425 10.6421 32.1632 11.1516C32.0157 11.1382 31.3721 11.098 30.4737 11.1382C30.3262 11.1382 30.1787 11.1382 30.0312 11.1516C29.8703 10.7761 29.7228 10.4811 29.6155 10.2934C29.468 10.0118 29.2937 10.1459 29.4278 10.4007C29.4278 10.4007 29.5619 10.6823 29.763 11.1784C29.3474 11.2052 28.9048 11.2589 28.4623 11.3259C28.0333 11.393 28.0333 11.5673 28.4623 11.5405C28.4623 11.5405 29.0255 11.4734 29.8703 11.46C30.0714 11.9829 30.2994 12.6802 30.5139 13.5116C30.2994 13.5116 29.5619 13.5786 28.5696 13.7127L28.5831 13.7395Z" fill="var(--sapContent_Illustrative_Color15)"/>
<path d="M32.4299 9.51518C32.9126 9.51518 33.2344 9.55541 33.2344 9.60904C33.516 10.7086 32.8992 10.7086 32.8858 11.1108C32.8858 11.2047 32.926 11.5533 32.926 11.6204C32.9663 11.9422 32.7383 11.8483 32.7383 11.8483C32.4567 10.8561 32.1215 10.0649 31.8668 9.50177C32.0679 9.50177 32.2556 9.50177 32.4299 9.50177V9.51518Z" fill="var(--sapContent_Illustrative_Color15)"/>
<path d="M30.5943 11.4865C31.1038 11.4865 31.667 11.5133 32.2436 11.5669C32.3642 12.0898 32.4313 12.5458 32.4582 12.8542C32.485 13.1223 32.2838 13.3637 32.0156 13.3771C31.8279 13.3771 31.6402 13.3771 31.4927 13.3905C31.3854 13.3905 31.3049 13.4844 31.3049 13.5916C31.3586 14.128 31.3854 14.2889 31.3988 14.49C31.4256 14.7984 31.1977 14.7314 31.1977 14.7314C30.8625 13.3637 30.4736 12.2776 30.1384 11.4865C30.2859 11.4865 30.4334 11.4865 30.5809 11.4865H30.5943Z" fill="var(--sapContent_Illustrative_Color15)"/>
<path d="M32.3235 9.20575C32.3637 9.29961 32.3906 9.40688 32.4308 9.51415C32.2565 9.51415 32.0688 9.51415 31.8677 9.51415C31.814 9.40688 31.7737 9.31302 31.7335 9.23257C31.9212 9.23257 32.1224 9.23257 32.3235 9.23257V9.20575Z" fill="var(--sapContent_Illustrative_Color15)"/>
<path d="M32.1896 11.2038L32.3237 11.5793H32.2567C32.2298 11.4586 32.203 11.3245 32.1628 11.2038C32.1762 11.2038 32.1896 11.2038 32.1896 11.2038Z" fill="var(--sapContent_Illustrative_Color16)"/>
<path d="M32.1631 11.1901C32.1899 11.3242 32.2302 11.4448 32.257 11.5655C31.6804 11.5119 31.1172 11.4985 30.6077 11.4851C30.5675 11.3778 30.5138 11.2705 30.4736 11.1767C31.372 11.1364 32.0156 11.1767 32.1631 11.1901Z" fill="var(--sapContent_Illustrative_Color16)"/>
<path d="M31.7342 9.21866C31.7744 9.29911 31.8281 9.39297 31.8683 9.50024C31.7745 9.50024 31.694 9.50024 31.6001 9.50024C31.5599 9.40638 31.5197 9.31252 31.4794 9.21866C31.5599 9.21866 31.6403 9.21866 31.7208 9.21866H31.7342Z" fill="var(--sapContent_Illustrative_Color16)"/>
<path d="M31.4913 9.23154C31.5316 9.3254 31.5718 9.41926 31.612 9.51312C31.3305 9.51312 31.0354 9.51312 30.7404 9.53994C30.3114 9.55335 30.2712 9.35222 30.7003 9.29858C30.8746 9.28517 31.1561 9.25835 31.5048 9.24495L31.4913 9.23154Z" fill="var(--sapContent_Illustrative_Color16)"/>
<path d="M31.5318 8.83076C31.5855 8.92462 31.6525 9.05871 31.7329 9.21962C31.6525 9.21962 31.572 9.21962 31.4916 9.21962C31.4379 9.09894 31.3843 8.97826 31.3307 8.85758C31.2234 8.64304 31.4111 8.56258 31.5452 8.83076H31.5318Z" fill="var(--sapContent_Illustrative_Color16)"/>
<path d="M28.7023 14.086C29.346 14.0055 29.9896 13.9519 30.6198 13.9117C30.7941 14.6224 30.9416 15.4135 31.0489 16.2582C31.0623 16.3923 30.9685 16.513 30.8344 16.513C30.4723 16.5264 29.8019 16.5666 29.5605 16.6203C29.3326 16.6605 29.3996 16.7812 29.413 17.036C29.4399 17.2907 29.4667 17.4784 29.4801 17.7332C29.4801 17.9075 29.4666 18.0684 29.2923 18.0818C29.2789 18.0818 29.2656 18.0818 29.2656 18.0818C29.2656 18.0818 28.8231 15.9632 28.1794 14.1396C28.3538 14.1128 28.528 14.0994 28.7023 14.0726V14.086Z" fill="var(--sapContent_Illustrative_Color15)"/>
<path d="M30.5932 13.5372L30.6871 13.8992H30.6066C30.5798 13.7786 30.553 13.6579 30.5128 13.5372C30.553 13.5372 30.5798 13.5372 30.5798 13.5372H30.5932Z" fill="var(--sapContent_Illustrative_Color16)"/>
<path d="M30.594 11.4859C30.4331 11.4859 30.2856 11.4859 30.1515 11.4859C30.1113 11.3787 30.0711 11.2848 30.0309 11.1909C30.1784 11.1909 30.3258 11.1775 30.4733 11.1775C30.5135 11.2714 30.5538 11.3787 30.6075 11.4859H30.594Z" fill="var(--sapContent_Illustrative_Color15)"/>
<path d="M30.5273 13.5506C30.5541 13.6713 30.5942 13.792 30.621 13.9126C29.9908 13.9529 29.3472 14.0199 28.7036 14.087C28.6634 13.9663 28.6232 13.8456 28.5829 13.7383C29.5886 13.6177 30.3127 13.5506 30.5273 13.5372V13.5506Z" fill="var(--sapContent_Illustrative_Color16)"/>
<path d="M30.0294 11.1909C30.0697 11.2848 30.1098 11.3786 30.1501 11.4859C30.0562 11.4859 29.9623 11.4859 29.8684 11.4859C29.8282 11.3921 29.788 11.2982 29.7612 11.2043C29.8551 11.2043 29.9355 11.2043 30.016 11.1909H30.0294Z" fill="var(--sapContent_Illustrative_Color16)"/>
<path d="M29.7628 11.2167C29.7896 11.3106 29.8298 11.391 29.87 11.4983C29.0252 11.5117 28.4621 11.5654 28.4621 11.5788C28.033 11.6056 28.033 11.4313 28.4621 11.3642C28.918 11.2972 29.3605 11.2436 29.7628 11.2167Z" fill="var(--sapContent_Illustrative_Color16)"/>
<path d="M30.0294 11.1904C29.949 11.1904 29.8551 11.1904 29.7746 11.2038C29.5735 10.7077 29.4394 10.4261 29.4394 10.4261C29.3053 10.1713 29.4662 10.0372 29.6271 10.3188C29.7344 10.5065 29.8684 10.8015 30.0428 11.177L30.0294 11.1904Z" fill="var(--sapContent_Illustrative_Color16)"/>
<path d="M26.6652 17.2772C27.282 17.1834 27.9257 17.1029 28.5827 17.0359C28.7034 17.5588 28.8106 18.122 28.9179 18.7254C28.9984 19.1679 29.0386 19.6238 29.052 19.8786C29.052 19.9992 28.9716 20.1065 28.8509 20.1199C28.5425 20.1602 27.9793 20.254 27.6172 20.3077C27.4831 20.3211 27.3759 20.4552 27.3759 20.5892C27.3625 21.1256 27.5099 21.4608 27.282 21.501C27.2552 21.501 27.2016 21.501 27.1345 21.501V21.4742C27.1345 21.4742 26.8261 19.4093 26.2361 17.3443C26.3836 17.3175 26.5312 17.3041 26.6787 17.2772H26.6652Z" fill="var(--sapContent_Illustrative_Color15)"/>
<path d="M28.5286 16.6878L28.6761 17.023H28.5689C28.542 16.9157 28.5152 16.8085 28.4884 16.6878C28.5152 16.6878 28.5286 16.6878 28.5286 16.6878Z" fill="var(--sapContent_Illustrative_Color16)"/>
<path d="M28.582 13.7387C28.6223 13.8459 28.6625 13.9666 28.7027 14.0873C28.5284 14.1007 28.3541 14.1275 28.1798 14.1544C28.1396 14.0337 28.0993 13.9264 28.0591 13.8191C28.2468 13.7923 28.4077 13.7655 28.582 13.7521V13.7387Z" fill="var(--sapContent_Illustrative_Color15)"/>
<path d="M28.4894 16.6878C28.5162 16.795 28.543 16.9157 28.5699 17.0364C27.9128 17.1035 27.2692 17.1839 26.6524 17.2778C26.6256 17.1571 26.5988 17.0498 26.5585 16.9291C27.591 16.7816 28.3151 16.7012 28.4894 16.6878Z" fill="var(--sapContent_Illustrative_Color16)"/>
<path d="M28.0596 13.8042C28.0998 13.9115 28.1401 14.0322 28.1803 14.1395C28.0596 14.1529 27.9389 14.1663 27.8182 14.1931C27.778 14.0724 27.7512 13.9651 27.7109 13.8579C27.8316 13.8445 27.9523 13.8176 28.0596 13.8042Z" fill="var(--sapContent_Illustrative_Color16)"/>
<path d="M27.8186 14.1948C28.0331 14.8653 28.2745 15.71 28.5024 16.6889C28.3415 16.6889 27.604 16.7827 26.5716 16.9302C26.3302 16.0721 26.0217 15.2273 25.6865 14.53C26.3436 14.4094 27.0677 14.3021 27.832 14.1948H27.8186Z" fill="var(--sapContent_Illustrative_Color15)"/>
<path d="M28.0579 13.805C27.9506 13.8184 27.8299 13.8318 27.7092 13.8586C27.3874 12.8797 27.1461 12.3434 27.1461 12.3434C26.9852 12.0886 27.1863 12.0082 27.3606 12.2897C27.602 12.692 27.8433 13.2284 28.0579 13.8184V13.805Z" fill="var(--sapContent_Illustrative_Color16)"/>
<path d="M27.7094 13.8596C27.7496 13.9668 27.7765 14.0741 27.8167 14.1948C27.0658 14.2886 26.3417 14.4093 25.6713 14.53C25.6177 14.4227 25.5774 14.3289 25.5237 14.235C26.288 14.0875 27.0255 13.9534 27.696 13.8596H27.7094Z" fill="var(--sapContent_Illustrative_Color16)"/>
<path d="M26.5712 16.929C26.5981 17.0497 26.6383 17.1569 26.6651 17.2776C26.5176 17.291 26.3701 17.3178 26.2226 17.3447C26.1958 17.224 26.1555 17.1167 26.1287 16.996C26.2762 16.9692 26.4372 16.9558 26.5712 16.929Z" fill="var(--sapContent_Illustrative_Color15)"/>
<path d="M26.5173 21.7828C27.2279 22.5605 27.5096 23.5662 25.7262 25.725L15.5354 18.5781C15.5354 18.5781 16.2863 17.9881 16.9031 17.5188C17.3456 17.1701 17.7077 17.0629 18.2038 17.1299C18.2709 17.0763 20.8186 15.2527 23.8892 13.0268L24.8814 13.2011C25.096 13.4693 25.3105 13.8313 25.5385 14.2604C25.3775 14.2872 25.2167 14.3275 25.0557 14.3543C25.0155 14.2872 24.9753 14.2336 24.9485 14.1665C24.7741 13.8984 24.573 13.9654 24.734 14.2202C24.734 14.2202 24.7608 14.2738 24.8144 14.3945C24.1976 14.5286 23.5808 14.6895 22.9908 14.8638C22.7629 14.9309 22.6555 15.0113 22.6958 15.0515L22.0789 15.6818C22.0119 15.6818 21.9851 15.7756 22.0789 15.9097C22.0789 15.9097 22.374 16.5265 22.736 17.626C22.2399 17.7333 21.7437 17.854 21.2476 17.9747C19.9201 17.5054 19.8665 17.8138 20.3895 17.9479C21.6633 18.2965 24.6669 19.7178 26.5441 21.7828H26.5173Z" fill="var(--sapContent_Illustrative_Color15)"/>
<path d="M23.6066 17.7998C24.2636 17.6657 25.0145 17.5182 25.8191 17.3975C26.0336 18.2423 26.2482 19.2479 26.4091 20.3609L25.7252 20.5084C25.7252 20.5084 24.6123 19.677 23.5261 19.0468C23.4189 18.6579 23.2982 18.2691 23.1775 17.907C23.3116 17.8802 23.4591 17.8534 23.6066 17.8132V17.7998Z" fill="var(--sapContent_Illustrative_Color15)"/>
<path d="M26.1146 16.9967C26.1548 17.1174 26.1816 17.2246 26.2085 17.3453C26.0744 17.3587 25.9403 17.3855 25.8062 17.4123C25.7794 17.2917 25.7392 17.1844 25.7123 17.0637C25.8464 17.0369 25.9805 17.0235 26.1012 16.9967H26.1146Z" fill="var(--sapContent_Illustrative_Color16)"/>
<path d="M25.6713 14.5301C26.0065 15.2274 26.3148 16.0721 26.5562 16.9303C26.4087 16.9437 26.2612 16.9705 26.1137 16.9973C25.8589 16.1392 25.5505 15.2944 25.1885 14.6105C25.336 14.5837 25.4969 14.5569 25.6578 14.5301H25.6713Z" fill="var(--sapContent_Illustrative_Color15)"/>
<path d="M26.1149 16.9975C25.9808 17.0109 25.8601 17.0377 25.726 17.0645C25.4176 15.965 25.1092 15.1471 24.9214 14.6778C25.0153 14.6643 25.1092 14.6375 25.2031 14.6241C25.5517 15.2946 25.8601 16.1393 26.1283 17.0109L26.1149 16.9975Z" fill="var(--sapContent_Illustrative_Color16)"/>
<path d="M25.7256 17.0493C25.7525 17.1566 25.7927 17.2773 25.8195 17.3979C25.015 17.532 24.2641 17.6661 23.607 17.8002C23.5668 17.6795 23.5266 17.5589 23.4864 17.4516C24.2775 17.2907 25.0418 17.1566 25.7256 17.0493Z" fill="var(--sapContent_Illustrative_Color16)"/>
<path d="M25.5245 14.2341C25.5781 14.3279 25.6184 14.4218 25.6721 14.5291C25.5112 14.5559 25.3502 14.5827 25.2027 14.6095C25.1491 14.5157 25.0954 14.4218 25.0418 14.3279C25.2027 14.2877 25.3636 14.2609 25.5245 14.2341Z" fill="var(--sapContent_Illustrative_Color15)"/>
<path d="M23.4862 17.4524C23.3387 17.4792 23.1911 17.506 23.0436 17.5462C22.7889 16.8758 22.5207 16.2724 22.2659 15.8433C22.1854 15.7226 22.105 15.669 22.0514 15.669L22.6681 15.0388C22.6681 15.0388 22.8559 15.079 23.1643 15.012C23.5799 14.9181 24.1834 14.7974 24.8941 14.6633C25.0952 15.1326 25.4036 15.9506 25.6986 17.0501C25.0147 17.1574 24.2638 17.2915 23.4593 17.4524H23.4862Z" fill="var(--sapContent_Illustrative_Color15)"/>
<path d="M25.0424 14.3281C25.0961 14.4219 25.1497 14.5158 25.2033 14.6097C25.1095 14.6231 25.0156 14.6365 24.9217 14.6633C24.8815 14.556 24.8413 14.4622 24.8011 14.3817C24.8815 14.3683 24.962 14.3415 25.0424 14.3281Z" fill="var(--sapContent_Illustrative_Color16)"/>
<path d="M24.9359 14.1541C24.9359 14.1541 25.0164 14.2748 25.0432 14.3419C24.9628 14.3553 24.8823 14.3821 24.8019 14.3955C24.7482 14.2748 24.7214 14.2212 24.7214 14.2212C24.5605 13.9664 24.7616 13.886 24.9359 14.1676V14.1541Z" fill="var(--sapContent_Illustrative_Color16)"/>
<path d="M24.8004 14.3807C24.8272 14.4478 24.8674 14.5416 24.921 14.6623C24.1969 14.7964 23.607 14.9171 23.1913 15.0109C22.8829 15.078 22.722 15.078 22.6952 15.0377C22.655 14.9975 22.7757 14.9171 22.9902 14.85C23.5802 14.6757 24.197 14.5148 24.8138 14.3807H24.8004Z" fill="var(--sapContent_Illustrative_Color16)"/>
<path d="M23.4863 17.4528C23.5265 17.5601 23.5667 17.6808 23.6069 17.8015C23.4594 17.8283 23.3119 17.8551 23.1778 17.8953C23.1376 17.7746 23.0974 17.654 23.0572 17.5467C23.2047 17.5199 23.3521 17.493 23.4996 17.4528H23.4863Z" fill="var(--sapContent_Illustrative_Color15)"/>
<path d="M23.178 17.895C23.3121 18.257 23.4194 18.6459 23.5266 19.0347C23.3791 18.9409 23.2183 18.8604 23.0708 18.78C22.9903 18.485 22.9098 18.2168 22.8293 17.962C22.9366 17.9352 23.0573 17.9084 23.178 17.895Z" fill="var(--sapContent_Illustrative_Color16)"/>
<path d="M23.0571 17.5468C23.0974 17.6675 23.1376 17.7748 23.1778 17.8955C23.0571 17.9223 22.9498 17.9491 22.8291 17.9625C22.7889 17.8418 22.7487 17.7212 22.7219 17.6139C22.8292 17.5871 22.9499 17.5603 23.0571 17.5468Z" fill="var(--sapContent_Illustrative_Color16)"/>
<path d="M22.2665 15.8434C22.5346 16.2725 22.8028 16.8625 23.0442 17.5463C22.9369 17.5732 22.8163 17.6 22.709 17.6134C22.3469 16.5139 22.052 15.897 22.052 15.897C21.9581 15.7496 21.9849 15.6691 22.052 15.6691C22.1056 15.6691 22.186 15.7227 22.2665 15.8434Z" fill="var(--sapContent_Illustrative_Color16)"/>
<path d="M22.8297 17.9632C22.9101 18.218 22.9906 18.4862 23.0711 18.7812C22.9236 18.7007 22.7895 18.6337 22.642 18.5666C22.3336 18.4191 22.052 18.2984 21.7972 18.1912C22.0788 18.1241 22.4274 18.0437 22.8297 17.9632Z" fill="var(--sapContent_Illustrative_Color15)"/>
<path d="M22.7231 17.6124C22.7633 17.7197 22.8035 17.8403 22.8303 17.961C22.4415 18.0415 22.0929 18.1219 21.7979 18.189C21.5833 18.0951 21.3956 18.0281 21.2213 17.9744C21.7174 17.8403 22.227 17.7331 22.7097 17.6258L22.7231 17.6124Z" fill="var(--sapContent_Illustrative_Color16)"/>
<path d="M21.7983 18.1912C21.7983 18.1912 21.7714 18.1912 21.7446 18.1912C21.3692 18.0839 21.3692 18.0705 21.1949 17.9632C21.1949 17.9632 21.1949 17.9632 21.2083 17.9632C21.3826 18.0169 21.5703 18.0973 21.7849 18.1778L21.7983 18.1912Z" fill="var(--sapContent_Illustrative_Color16)"/>
<path d="M34.8576 5.07605C34.8308 5.08946 34.7905 5.11628 34.7637 5.12969C34.7637 5.12969 28.6895 9.5278 23.8891 13.0007C20.8185 15.2266 18.2708 17.0636 18.2038 17.1038C17.7076 17.0502 17.3456 17.1574 16.9031 17.4927C16.2997 17.962 15.5353 18.552 15.5353 18.552L25.7261 25.6989L28.1129 27.375C28.1129 27.375 28.4079 26.7582 28.7967 25.8464C29.1856 24.9212 29.1856 24.653 28.9845 24.063C29.0783 23.7948 35.7425 5.86718 35.7425 5.86718C35.9437 5.31741 35.3671 4.82128 34.871 5.06264L34.8576 5.07605Z" fill="var(--sapContent_Illustrative_Color15)"/>
<path d="M27.1214 21.502C27.1214 21.502 27.242 21.502 27.2689 21.502C27.4968 21.4618 27.3493 21.1131 27.3627 20.5902C27.3627 20.4561 27.4834 20.3354 27.6041 20.3086C27.9661 20.2415 28.5293 20.1611 28.8378 20.1209C28.9584 20.1075 29.0388 20.0002 29.0388 19.8795C29.0254 19.6247 29.2534 18.0961 29.2534 18.0961C29.2534 18.0961 29.2534 18.0961 29.2802 18.0961C29.4545 18.0827 29.4813 17.9084 29.4679 17.7475C29.4545 17.4927 29.4277 17.305 29.4009 17.0502C29.3741 16.8089 29.3204 16.6882 29.5484 16.6346C29.7763 16.5809 30.4468 16.5407 30.8222 16.5273C30.9563 16.5273 31.0502 16.3932 31.0368 16.2725C30.943 15.4144 30.6614 13.9126 30.6882 13.9126C30.6882 13.9126 30.8625 13.3762 31.1977 14.7439C31.1977 14.7439 31.439 14.8244 31.3988 14.5025C31.3854 14.3014 31.3586 14.1539 31.3049 13.6042C31.3049 13.4969 31.372 13.403 31.4927 13.403C31.6268 13.403 31.8279 13.403 32.0156 13.3896C32.2838 13.3896 32.4984 13.1482 32.4582 12.8667C32.4179 12.5583 32.4581 10.8687 32.7397 11.861C32.7397 11.861 32.9677 11.9549 32.9274 11.633C32.9274 11.5526 32.8738 11.204 32.8872 11.1235C32.8872 10.7078 33.5174 10.7078 33.2358 9.62172C33.2358 9.58149 33.2358 9.23286 33.5845 9.27308C33.8929 9.31331 33.8393 9.08536 33.7991 8.92445C33.7454 8.65628 34.0806 8.66969 34.0806 8.66969C34.0806 8.66969 34.322 8.80377 34.1879 8.21378C34.0538 7.61038 34.0672 7.3288 34.1879 7.12767C34.4695 6.67176 34.8583 6.04155 35.0461 5.78678C35.3411 5.38451 35.1399 4.99565 34.8315 5.10293C35.3276 4.86157 35.9176 5.34429 35.7031 5.90746C35.7031 5.90746 29.0388 23.8351 28.945 24.1033C29.1461 24.6933 29.1462 24.9749 28.7573 25.8867C28.3684 26.7985 28.0734 27.4153 28.0734 27.4153L25.6866 25.7392C27.47 23.5804 27.2019 22.5747 26.4778 21.797C24.6005 19.732 21.5969 18.3107 20.3231 17.962C19.8001 17.8279 21.1812 17.9889 21.1678 17.9889C21.3287 18.0961 22.8842 18.7129 23.0317 18.7934C23.1792 18.8738 25.6866 20.5231 25.6866 20.5231L27.0812 21.4886V21.5154L27.1214 21.502Z" fill="var(--sapContent_Illustrative_Color16)"/>
<path d="M21.2078 17.9748C25.4584 17.7066 29.3068 15.3466 31.4924 11.6726L34.2144 7.10019L34.7776 7.54268L28.4218 23.6736L26.6384 21.3941L25.7266 20.4822L21.2212 17.948L21.2078 17.9748Z" fill="var(--sapContent_Illustrative_Color16)"/>
<path d="M42.3535 28.0579C40.7847 28.1786 35.7966 28.6211 32.0019 28.9563C28.8374 27.6959 23.7286 27.1059 17.9494 27.1059C8.34867 27.1059 11.3522 28.8758 11.3522 32.5499C11.3522 35.0976 14.5971 39.4286 14.2887 37.9671C14.5971 38.0341 17.413 38.9057 18.3114 38.9057C27.6842 38.9057 34.9519 36.1971 35.3005 32.6437C38.3577 31.1688 43.3726 28.7686 43.8017 28.5942C44.7269 28.2322 43.9492 27.9104 42.3535 28.0445V28.0579Z" fill="var(--sapContent_Illustrative_Color21)"/>
<path d="M29.5886 33.1692C29.5886 33.6386 29.4679 34.1615 29.24 34.671C29.7629 32.0161 27.4968 31.1981 26.3973 31.0506C25.6062 30.9836 28.0063 30.7288 28.4488 28.2616C28.3952 29.0929 28.2075 29.8975 27.9259 30.6618C28.9182 31.1445 29.5886 32.0831 29.5886 33.1692Z" fill="var(--sapContent_Illustrative_Color21)"/>
<path d="M26.3964 31.0497C27.496 31.1972 29.7621 32.0286 29.2391 34.6701C28.7028 35.9037 27.5094 37.1373 25.6456 37.7273C23.004 38.5587 20.0138 38.8537 17.3455 38.7464V38.7196C18.445 38.7598 19.4104 38.6257 19.7725 38.4782C21.462 37.8078 20.4563 36.1049 19.0484 35.9976C15.2269 35.6892 14.0066 35.1126 14.9586 35.1528C16.6482 35.2065 18.8875 34.9651 20.1345 34.1472C21.3816 33.3292 21.167 31.6665 19.8261 31.6397C18.0293 31.5995 17.5868 31.9615 18.5925 31.157C23.4063 27.3086 21.2743 18.8208 16.6214 18.2442C18.3512 18.3515 20.5368 18.9415 22.186 19.8801C25.1762 21.5696 27.925 24.6805 28.3944 26.7186C28.4614 27.0405 28.448 27.3623 28.448 27.6975C28.448 27.8852 28.448 28.0595 28.4346 28.2473C28.0055 30.7145 25.5919 30.9693 26.383 31.0363L26.3964 31.0497Z" fill="var(--sapContent_Illustrative_Color24)"/>
<path d="M9.8233 35.999C9.8233 35.999 9.91771 36.026 9.95819 36.0395C9.95819 36.0125 9.95819 35.9855 9.95819 35.9585C9.91771 35.972 9.8772 35.9855 9.83673 35.999H9.8233Z" fill="var(--sapContent_Illustrative_Color8)"/>
<path d="M14.9586 35.1662C16.6481 35.2198 18.8875 34.9918 20.1345 34.1739C21.3815 33.356 21.1669 31.6933 19.826 31.653C18.0292 31.6128 17.5868 31.9749 18.5924 31.1703C20.4965 29.6417 21.3145 27.389 21.3145 25.19C21.3145 21.8377 19.4238 18.6062 16.6079 18.2576C16.152 18.2308 15.7364 18.2442 15.3609 18.2844C10.6142 18.8207 6.94009 22.1998 6.24283 26.3029L5.89427 27.8449C4.75452 28.1935 3.97677 29.1054 3.68177 30.5535C2.24703 30.7815 1 31.881 1 33.5437C1 35.2064 4.75446 35.8098 5.74671 36.078C4.99581 36.2925 4.47285 36.6277 4.47285 37.1507C4.47285 38.0491 5.49198 38.6793 7.54354 38.9206C7.70444 38.9341 7.89219 38.9609 8.0665 38.9743C10.3728 39.1486 11.2712 38.4111 11.365 37.5395C12.7059 38.2368 14.8916 38.6793 17.3454 38.7731V38.7463C18.4449 38.8 19.4104 38.6659 19.7724 38.505C21.4619 37.8345 20.4563 36.1316 19.0484 36.0243C15.2268 35.7159 14.0066 35.1393 14.9586 35.1796V35.1662ZM7.16805 32.0419C7.16805 32.0419 7.10101 32.0419 7.0876 32.0285C7.06078 32.0017 7.04743 31.9748 7.06084 31.9346L7.34237 31.9749C7.34237 31.9749 7.2217 32.0151 7.18147 32.0419H7.16805Z" fill="var(--sapContent_Illustrative_Color25)"/>
</svg>
