<svg width="320" height="240" viewBox="0 0 320 240" fill="none" xmlns="http://www.w3.org/2000/svg" id="sapIllus-Ice-Cream-Demo-Largev2">
<path d="M0 49C0 35.7452 10.7452 25 24 25H296C309.255 25 320 35.7452 320 49V139C320 152.255 309.255 163 296 163H24C10.7452 163 0 152.255 0 139V49Z" fill="var(--sapContent_Illustrative_Color20)"/>
<path d="M191.976 35.763L192.395 37.2842C192.289 37.2919 192.189 37.2995 192.082 37.3072C191.953 36.7873 191.831 36.2752 191.693 35.7783C191.876 35.763 191.968 35.7554 191.976 35.763Z" fill="var(--sapContent_Illustrative_Color16)"/>
<path d="M207.132 8.78126C206.59 9.62947 206.522 10.7986 207.094 13.3356C207.643 15.7962 206.621 15.246 206.621 15.246C206.621 15.246 205.484 12.2811 204.301 10.1567C203.767 9.20154 203.057 9.1022 203.56 10.3325C204.247 11.9831 205.163 15.1772 205.415 16.2929C205.575 16.9883 205.789 17.8976 204.522 17.7524C203.049 17.5843 201.126 17.5385 199.218 17.5614C199.378 17.9588 199.523 18.379 199.668 18.8222C201.683 18.8757 203.034 19.0133 203.034 19.212C204.24 23.8198 201.614 23.8198 201.576 25.5315C201.569 25.9136 201.721 27.3808 201.767 27.6941C201.958 29.0314 201.004 28.6493 201.004 28.6493C199.836 24.4923 198.44 21.1376 197.333 18.7993C197.127 18.3714 196.936 17.974 196.761 17.6149C196.432 16.9577 196.15 16.4152 195.929 16.0025C195.349 14.9174 194.601 15.2078 195.044 16.1324C195.288 16.6444 195.517 17.1487 195.73 17.6607C194.296 17.7295 193.09 17.8212 192.372 17.9129C190.61 18.1269 190.777 19.0133 192.563 18.9292C193.8 18.8681 195.044 18.8299 196.219 18.807C197.241 21.321 197.989 23.7434 198.531 25.9136C197.936 25.8448 195.204 25.6844 191.449 25.8295C191.625 26.2345 191.8 26.6778 191.983 27.1592C194.097 27.1745 196.463 27.2662 198.905 27.4801C199.401 29.6962 199.676 31.5683 199.829 32.8903C199.958 34.0289 199.096 35.03 197.959 35.0682C197.196 35.0911 196.379 35.114 195.791 35.1369C195.326 35.1522 194.99 35.542 195.028 36.0004C195.227 38.2776 195.341 38.9119 195.417 39.7677C195.547 41.0897 194.547 40.7611 194.547 40.7611C193.136 35.0452 191.495 30.4603 190.121 27.1592C189.938 26.7236 189.762 26.311 189.595 25.9212C188.892 24.3242 188.297 23.1015 187.87 22.2915C187.236 21.0841 186.542 21.6573 187.107 22.7424C187.107 22.7424 187.687 23.9039 188.511 25.99C186.786 26.1276 184.947 26.3262 183.047 26.6166C181.246 26.8917 181.276 27.6329 183.047 27.503C183.069 27.4725 185.42 27.2432 188.969 27.1745C189.801 29.3676 190.793 32.2943 191.693 35.7788C190.777 35.8247 187.725 36.0692 183.527 36.5965C183.688 37.0473 183.863 37.5364 184.031 38.056C186.725 37.7351 189.442 37.4753 192.082 37.3071C192.8 40.2797 193.433 43.6038 193.845 47.18C193.914 47.7379 193.494 48.2346 192.937 48.2651C191.403 48.3492 188.595 48.5249 187.618 48.7236C186.664 48.9147 186.923 49.4037 187.015 50.4353C187.107 51.5204 187.236 52.2769 187.297 53.362C187.343 54.0727 187.229 54.7681 186.511 54.8369C186.427 54.8521 186.382 54.8521 186.382 54.8521C186.382 54.8521 184.504 45.9574 181.856 38.3235C181.688 37.8421 181.513 37.3606 181.345 36.8945C180.429 34.4263 179.444 32.1644 178.414 30.4909C177.704 29.3294 176.834 29.6656 177.529 30.7431C177.529 30.7431 178.536 33.0126 179.879 37.1008C177.071 37.5058 173.972 38.0255 170.775 38.6673C170.973 39.0647 171.172 39.4697 171.37 39.8976C174.14 39.4239 177.185 38.9424 180.337 38.5145C181.23 41.3419 182.23 44.8646 183.184 48.9834C182.467 49.0293 179.429 49.3502 175.102 49.9768C175.239 50.4582 175.369 50.932 175.491 51.4134C178.078 51.039 180.772 50.6951 183.512 50.42C183.993 52.6284 184.458 54.9897 184.886 57.4885C185.206 59.3683 185.382 61.2405 185.466 62.3103C185.504 62.8146 185.145 63.2578 184.642 63.3342C183.359 63.5176 180.971 63.8692 179.46 64.1213C178.918 64.213 178.452 64.7327 178.429 65.2828C178.353 67.5142 178.971 68.9431 178.017 69.1342C177.926 69.1495 177.682 69.1724 177.407 69.18V69.0501C177.407 69.0501 176.125 60.3923 173.66 51.6962C173.522 51.2148 173.385 50.7257 173.24 50.2443C172.156 46.6222 170.866 43.0842 169.378 40.2491C169.172 39.8441 168.959 39.4621 168.737 39.0876C168.585 38.8202 168.424 38.568 168.264 38.3158C167.531 37.162 166.684 37.4829 167.379 38.568C167.379 38.568 167.501 38.8202 167.715 39.3092C165.15 39.89 162.571 40.5395 160.083 41.2884C159.152 41.5711 158.663 41.915 158.824 42.0831C158.969 42.2359 159.617 42.2436 160.93 41.9456C162.67 41.5482 165.196 41.0209 168.203 40.4707C169.02 42.4346 170.309 45.881 171.584 50.5041C168.745 50.9549 165.555 51.5128 162.22 52.1852C162.38 52.6437 162.54 53.1404 162.701 53.6601C165.463 53.0946 168.6 52.5062 171.981 51.956C172.904 55.5169 173.797 59.6969 174.453 64.3811L171.569 64.9848C171.569 64.9848 166.883 61.5079 162.357 58.8334C161.915 57.1904 161.426 55.5704 160.892 54.0268C160.724 53.5301 160.556 53.0411 160.381 52.5673C159.335 49.7323 158.198 47.2259 157.099 45.4301C156.794 44.9181 156.45 44.6965 156.221 44.6965C155.924 44.6965 155.817 45.071 156.214 45.6823C156.214 45.6823 157.465 48.2651 158.984 52.8653C156.908 53.3238 154.809 53.8205 152.718 54.3631C147.185 52.3992 146.926 53.6524 149.109 54.2485C154.451 55.708 167.058 61.6837 174.926 70.3186C177.91 73.5968 179.07 77.815 171.584 86.8549L128.869 56.8542C128.869 56.8542 132.037 54.3784 134.578 52.4068C136.44 50.9626 137.936 50.5041 140.035 50.7563C140.325 50.5576 150.986 42.8473 163.853 33.5246C183.939 18.9827 209.422 0.520745 209.422 0.520745C209.544 0.429047 209.673 0.352632 209.795 0.283858C209.818 0.276216 209.841 0.268574 209.864 0.260933C211.131 -0.159352 211.993 1.4683 210.757 3.14944C209.956 4.24218 208.33 6.89379 207.132 8.78126Z" fill="var(--sapContent_Illustrative_Color15)"/>
<path d="M159.457 54.3324C159.786 55.3869 160.121 56.5332 160.457 57.7558C159.847 57.4196 159.251 57.1216 158.687 56.8541C157.366 56.2351 156.183 55.7155 155.13 55.2799C156.336 55.0125 157.794 54.6839 159.457 54.3324Z" fill="var(--sapContent_Illustrative_Color15)"/>
<path d="M158.686 56.854C157.366 56.235 156.183 55.7154 155.13 55.2798C156.335 55.0124 157.793 54.6838 159.457 54.3323C159.785 55.3868 160.121 56.533 160.457 57.7557C159.846 57.4195 159.251 57.1214 158.686 56.854Z" fill="var(--sapContent_Illustrative_Color16)"/>
<path d="M213.527 3.63092C213.527 3.63092 185.626 78.8314 185.206 79.9776C186.03 82.4535 186.031 83.6073 184.405 87.4739C182.795 91.2871 181.566 93.8699 181.566 93.8699L171.584 86.855C179.07 77.815 177.91 73.5969 174.926 70.3187C167.058 61.6837 154.451 55.708 149.109 54.2485C146.926 53.6525 147.185 52.3993 152.718 54.3631C154.809 53.8206 156.908 53.3239 158.984 52.8654C157.465 48.2652 156.214 45.6823 156.214 45.6823C155.817 45.071 155.924 44.6966 156.221 44.6966C156.45 44.6966 156.794 44.9182 157.099 45.4302C158.198 47.2259 159.335 49.7324 160.38 52.5674C160.556 53.0411 160.724 53.5302 160.892 54.0269C161.426 55.5705 161.914 57.1905 162.357 58.8334C166.883 61.508 171.568 64.9849 171.568 64.9849L174.453 64.3812C173.797 59.6969 172.904 55.517 171.981 51.956C168.6 52.5062 165.463 53.0946 162.7 53.6601C162.54 53.1405 162.38 52.6438 162.22 52.1853C165.555 51.5128 168.745 50.955 171.584 50.5042C170.309 45.881 169.019 42.4347 168.203 40.4708C165.196 41.021 162.67 41.5483 160.93 41.9456C159.617 42.2436 158.969 42.236 158.824 42.0832C158.663 41.9151 159.152 41.5712 160.083 41.2884C162.571 40.5396 165.15 39.89 167.714 39.3093C167.501 38.8202 167.379 38.5681 167.379 38.5681C166.684 37.483 167.531 37.162 168.264 38.3159C168.424 38.5681 168.585 38.8202 168.737 39.0877C168.958 39.4621 169.172 39.8442 169.378 40.2492C170.866 43.0842 172.156 46.6222 173.24 50.2443C173.385 50.7258 173.522 51.2148 173.66 51.6962C176.125 60.3923 177.399 69.0502 177.399 69.0502V69.1801C177.681 69.1724 177.926 69.1495 178.017 69.1342C178.971 68.9432 178.353 67.5142 178.429 65.2829C178.452 64.7327 178.918 64.2131 179.46 64.1214C180.971 63.8692 183.359 63.5177 184.641 63.3343C185.145 63.2579 185.504 62.8147 185.466 62.3103C185.382 61.2405 185.206 59.3683 184.886 57.4885C184.458 54.9897 183.993 52.6285 183.512 50.4201C180.772 50.6952 178.078 51.0391 175.491 51.4135C175.369 50.9321 175.239 50.4583 175.102 49.9769C179.429 49.3503 182.466 49.0293 183.184 48.9835C182.23 44.8647 181.23 41.3419 180.337 38.5146C177.185 38.9425 174.14 39.4239 171.37 39.8977C171.172 39.4698 170.973 39.0648 170.775 38.6674C173.972 38.0255 177.071 37.5059 179.879 37.1009C178.536 33.0127 177.529 30.7431 177.529 30.7431C176.834 29.6657 177.704 29.3294 178.414 30.4909C179.444 32.1644 180.429 34.4263 181.345 36.8946C181.513 37.3607 181.688 37.8421 181.856 38.3235C184.504 45.9574 186.382 54.8522 186.382 54.8522C186.382 54.8522 186.427 54.8522 186.511 54.8369C187.229 54.7681 187.343 54.0728 187.297 53.3621C187.236 52.277 187.107 51.5205 187.015 50.4354C186.923 49.4038 186.664 48.9147 187.618 48.7237C188.595 48.525 191.403 48.3492 192.937 48.2652C193.494 48.2346 193.914 47.7379 193.845 47.1801C193.433 43.6038 192.8 40.2798 192.082 37.3072C189.442 37.4753 186.725 37.7351 184.031 38.0561C183.863 37.5364 183.688 37.0474 183.527 36.5965C187.725 36.0693 190.777 35.8247 191.693 35.7789C190.793 32.2944 189.801 29.3676 188.969 27.1745C185.42 27.2433 183.069 27.4725 183.047 27.5031C181.276 27.633 181.245 26.8918 183.047 26.6167C184.947 26.3263 186.786 26.1276 188.511 25.9901C187.686 23.9039 187.107 22.7424 187.107 22.7424C186.542 21.6573 187.236 21.0842 187.87 22.2916C188.297 23.1016 188.892 24.3242 189.594 25.9213C189.762 26.311 189.938 26.7237 190.121 27.1592C191.495 30.4604 193.136 35.0453 194.547 40.7612C194.547 40.7612 195.547 41.0898 195.417 39.7678C195.341 38.9119 195.227 38.2777 195.028 36.0005C194.99 35.542 195.326 35.1523 195.791 35.137C196.379 35.1141 197.196 35.0912 197.959 35.0682C199.096 35.03 199.958 34.029 199.829 32.8904C199.676 31.5684 199.401 29.6962 198.905 27.4802C196.463 27.2662 194.097 27.1745 191.983 27.1592C191.8 26.6778 191.624 26.2346 191.449 25.8296C195.204 25.6844 197.936 25.8449 198.531 25.9137C197.989 23.7435 197.241 21.3211 196.219 18.807C195.043 18.8299 193.799 18.8682 192.563 18.9293C190.777 19.0133 190.609 18.1269 192.372 17.913C193.09 17.8213 194.296 17.7296 195.73 17.6608C195.517 17.1488 195.288 16.6445 195.043 16.1325C194.601 15.2079 195.349 14.9175 195.929 16.0026C196.15 16.4152 196.432 16.9578 196.761 17.6149C196.936 17.9741 197.127 18.3715 197.333 18.7994C198.44 21.1377 199.836 24.4923 201.004 28.6493C201.004 28.6493 201.958 29.0314 201.767 27.6941C201.721 27.3808 201.569 25.9137 201.576 25.5316C201.614 23.8199 204.24 23.8199 203.034 19.212C203.034 19.0133 201.683 18.8758 199.668 18.8223C199.523 18.3791 199.378 17.9588 199.218 17.5615C201.126 17.5385 203.049 17.5844 204.522 17.7525C205.789 17.8977 205.575 16.9883 205.415 16.293C205.163 15.1773 204.247 11.9831 203.56 10.3326C203.057 9.10226 203.766 9.2016 204.301 10.1568C205.484 12.2811 206.621 15.2461 206.621 15.2461C206.621 15.2461 207.643 15.7963 207.094 13.3357C206.521 10.7987 206.59 9.62953 207.132 8.78132C208.33 6.89386 209.956 4.24224 210.757 3.1495C211.993 1.46836 211.131 -0.15929 209.864 0.260995C211.94 -0.740047 214.382 1.30025 213.527 3.63092Z" fill="var(--sapContent_Illustrative_Color16)"/>
<path d="M69.9987 108.978C74.2979 108.978 77.783 107.873 77.783 106.51C77.783 105.146 74.2979 104.041 69.9987 104.041C65.6996 104.041 62.2144 105.146 62.2144 106.51C62.2144 107.873 65.6996 108.978 69.9987 108.978Z" fill="var(--sapContent_Illustrative_Color21)"/>
<path d="M101.975 119.033C101.975 115.426 94.7016 112.499 85.7268 112.499C76.7519 112.499 69.4789 115.426 69.4789 119.033C69.4789 122.64 76.7519 125.566 85.7268 125.566C94.7016 125.566 101.975 122.64 101.975 119.033Z" fill="var(--sapContent_Illustrative_Color21)"/>
<path d="M241.275 96.6741C234.735 97.2014 213.847 99.043 197.981 100.449C184.732 95.1305 163.257 92.6852 139.019 92.6852C98.7924 92.6852 111.354 100.105 111.354 115.556C111.354 126.224 75.7906 138.794 98.6627 143.509C104.768 144.77 131.402 147.07 130.136 140.965C131.402 141.217 136.737 142.233 140.538 142.233C179.833 142.233 210.421 130.847 211.817 115.923C224.661 109.734 245.572 99.6772 247.343 98.9895C251.197 97.4918 247.984 96.1392 241.275 96.6818V96.6741Z" fill="var(--sapContent_Illustrative_Color21)"/>
<path d="M187.739 118.093C187.739 120.05 187.266 122.227 186.297 124.413C188.487 113.302 178.978 109.833 174.376 109.199C171.064 108.924 181.183 107.831 182.969 97.4383C182.74 100.961 181.977 104.354 180.771 107.571C184.923 109.588 187.739 113.539 187.739 118.093Z" fill="var(--sapContent_Illustrative_Color8)"/>
<path d="M174.375 109.198C178.977 109.832 188.486 113.301 186.296 124.412C184.029 129.585 179.046 134.789 171.246 137.235C160.188 140.704 147.626 141.972 136.461 141.544V141.445C141.04 141.636 145.077 141.071 146.627 140.459C153.732 137.663 149.488 130.51 143.581 130.036C127.593 128.768 122.48 126.338 126.456 126.483C133.561 126.735 142.948 125.719 148.153 122.288C153.358 118.857 152.48 111.865 146.886 111.742C139.354 111.574 137.491 113.095 141.719 109.71C161.913 93.5402 152.93 57.816 133.317 55.4853C140.605 55.898 149.778 58.3738 156.777 62.3551C169.3 69.477 180.809 82.5211 182.801 91.0796C183.106 92.4016 183.045 93.8 183.045 95.1908C183.045 95.9473 183.022 96.6962 182.969 97.4374C181.183 107.83 171.063 108.923 174.375 109.198Z" fill="var(--sapContent_Illustrative_Color25)"/>
<path d="M146.885 111.743C152.479 111.866 153.357 118.858 148.152 122.289C142.947 125.72 133.56 126.736 126.455 126.484C122.479 126.339 127.592 128.769 143.581 130.037C149.488 130.511 153.731 137.664 146.626 140.46C145.077 141.072 141.039 141.637 136.46 141.446C132.133 141.27 127.325 140.414 123.662 138.298C120.365 136.387 113.634 132.2 109.956 131.306C106.323 130.435 104.377 131.306 106.277 132.322C111.825 135.287 105.552 141.95 95.4098 142.195C86.786 141.224 82.5047 138.55 82.5047 134.783C82.5047 132.59 84.6644 131.138 87.8392 130.267C83.6647 129.181 81.8255 127.057 81.8255 123.771C81.8255 123.412 81.8713 123.068 81.94 122.724H81.9018C82.7641 120.126 84.7942 119.545 86.0992 119.125C86.5037 118.995 86.5037 118.437 86.0992 118.292C84.0539 117.52 82.6649 116.061 82.6649 116.061C82.6649 120.806 78.9483 122.197 76.0178 122.564C68.5998 121.563 67.9511 118.178 67.9511 115.472C67.9511 110.215 73.1559 108.053 79.2001 107.082C80.5357 100.625 84.0844 96.5673 89.4189 95.3599C89.3808 97.2627 89.4571 99.4252 89.77 101.58C89.77 101.58 95.1045 101.58 96.7529 106.662C96.7529 106.662 94.3185 110.414 93.3492 112.935C93.2348 113.226 93.5324 113.516 93.8148 113.386C95.5777 112.569 100.279 111.04 105.758 114.54C105.758 114.54 107.918 104.881 115.275 106.028C114.138 110.475 120.098 115.931 129.615 109.329C132.126 107.586 128.737 109.084 124.67 109.199C120.358 109.329 113.978 106.555 116.42 99.8837C117.351 97.3391 119.297 95.8184 120.434 94.2519C122.151 91.8907 122.479 89.8045 120.358 87.4738C117.687 84.5548 117.946 81.1619 117.687 79.5572L89.9379 89.239C92.8685 71.9921 108.307 57.817 128.18 55.5857C129.722 55.4099 131.454 55.387 133.309 55.4863C152.922 57.817 161.904 93.5412 141.711 109.711C137.483 113.096 139.345 111.575 146.878 111.743H146.885ZM104.926 129.976C105.117 130.022 105.3 130.075 105.484 130.121C105.468 130.022 105.445 129.915 105.438 129.816C105.27 129.869 105.102 129.923 104.926 129.976Z" fill="var(--sapContent_Illustrative_Color8)"/>
<path d="M136.462 141.447V141.546C126.159 141.156 117.047 139.307 111.399 136.396C110.98 140.018 107.232 143.135 97.5632 142.402C96.8153 142.348 96.0979 142.28 95.411 142.196C105.553 141.951 111.827 135.288 106.278 132.323C104.378 131.306 106.324 130.435 109.957 131.306C113.635 132.2 120.367 136.388 123.663 138.298C127.327 140.415 132.135 141.271 136.462 141.447Z" fill="var(--sapContent_Illustrative_Color25)"/>
<path d="M124.679 109.198C128.747 109.083 132.136 107.586 129.625 109.328C120.108 115.93 114.148 110.474 115.285 106.027C107.928 104.88 105.768 114.539 105.768 114.539C100.289 111.04 95.5876 112.568 93.8247 113.386C93.5423 113.515 93.2447 113.225 93.3591 112.935C94.3284 110.413 96.7628 106.661 96.7628 106.661C95.1144 101.579 89.7799 101.579 89.7799 101.579C89.467 99.4244 89.3907 97.2619 89.4288 95.3591C89.4288 95.3515 89.4441 95.3515 89.4517 95.3515C89.4517 95.298 89.4517 95.2445 89.4517 95.191C89.4517 94.8777 89.4518 94.572 89.467 94.2664C89.467 94.2052 89.467 94.1441 89.4747 94.083C89.5204 92.9902 89.5968 92.0274 89.6731 91.248C89.6807 91.1715 89.6883 91.0951 89.6959 91.0264C89.7646 90.4227 89.8562 89.8343 89.9555 89.2382L117.704 79.5564C117.964 81.1611 117.704 84.554 120.375 87.473C122.497 89.8037 122.169 91.8899 120.452 94.2511C119.314 95.8176 117.368 97.3383 116.437 99.8829C113.995 106.554 120.375 109.328 124.687 109.198H124.679Z" fill="var(--sapContent_Illustrative_Color25)"/>
<path d="M89.4674 94.0842C89.4903 93.129 89.5591 92.1815 89.6661 91.2492C89.5897 92.0286 89.5133 92.9915 89.4674 94.0842Z" fill="var(--sapContent_Illustrative_Color8)"/>
<path d="M86.1074 118.293C86.5042 118.438 86.5042 118.996 86.1074 119.126C84.8023 119.546 82.7723 120.127 81.91 122.725C81.0934 122.824 80.2692 122.862 79.4679 122.839C78.1857 122.801 77.0486 122.71 76.0336 122.564C78.9642 122.198 82.6808 120.807 82.6808 116.061C82.6808 116.061 84.0697 117.521 86.115 118.293H86.1074Z" fill="var(--sapContent_Illustrative_Color25)"/>
<path d="M71.0204 104.774C71.0204 106.47 70.4099 107.594 66.014 107.594C61.6182 107.594 61 106.47 61 104.774C61 103.078 63.2438 101.702 66.014 101.702C68.7843 101.702 71.0204 103.078 71.0204 104.774Z" fill="var(--sapContent_Illustrative_Color8)"/>
<path d="M117.78 79.7266C118.375 81.9426 115.262 83.8072 114.231 85.7405C113.552 87.009 112.965 88.7054 112.369 90.3942C110.843 91.0743 108.393 90.654 104.753 95.1396C104.417 95.5522 104.142 95.9496 103.906 96.3164C102.105 95.6057 100.136 93.8405 97.6479 87.4751C95.8926 82.9819 90.4208 81.3772 89.566 86.0691C88.8868 89.8287 93.4887 98.3949 101.563 99.4571C101.22 99.6939 100.8 99.8926 100.273 100.053C99.9755 100.145 99.6551 100.206 99.304 100.244V100.183C95.9995 100.053 92.382 97.0652 91.306 95.7356C84.3459 87.1236 87.9939 77.5869 91.4357 79.2146C98.4111 82.5234 103.616 78.5804 107.165 74.5151C109.92 71.3667 112.591 71.4202 114.773 73.6592C116.033 75.1417 117.086 77.1208 117.78 79.7266ZM114.781 78.5804C115.575 77.7856 115.178 76.0128 114.018 74.8971C112.369 73.3077 110.912 73.3077 110.4 74.133C109.904 74.943 110.927 76.3643 111.988 77.564C113.003 78.7103 114.27 79.0923 114.781 78.5804Z" fill="var(--sapContent_Illustrative_Color23)"/>
<path d="M114.017 74.8962C115.177 76.0119 115.574 77.7847 114.78 78.5794C114.269 79.0914 113.002 78.7093 111.987 77.5631C110.926 76.3634 109.903 74.9421 110.399 74.1321C110.911 73.3068 112.368 73.3068 114.017 74.8962Z" fill="var(--sapContent_Illustrative_Color25)"/>
<path d="M114.772 73.6589C112.59 71.4199 109.919 71.3664 107.164 74.5147C103.615 78.58 98.4101 82.5231 91.4348 79.2143C87.9929 77.5866 84.3449 87.1233 91.305 95.7353C92.3811 97.0649 95.9985 100.053 99.2954 100.183V100.244C95.5101 100.618 89.0613 97.4546 86.7871 89.324C84.0321 79.4741 88.26 71.3359 99.7609 71.2518C103.378 69.4102 110.369 68.4856 114.772 73.6589ZM103.615 75.9131C105.767 73.3074 107.377 71.7409 105.767 71.7179C100.57 71.6568 97.9675 75.4699 98.7917 77.1205C99.8983 79.3366 101.982 77.877 103.615 75.9131Z" fill="var(--sapContent_Illustrative_Color8)"/>
<path d="M105.767 71.7176C107.377 71.7405 105.767 73.3071 103.615 75.9128C101.981 77.8767 99.8981 79.3362 98.7915 77.1202C97.9673 75.4696 100.57 71.6565 105.767 71.7176Z" fill="var(--sapContent_Illustrative_Color23)"/>
<path d="M103.905 96.3153C103.004 97.6908 102.615 98.7377 101.562 99.456C93.4874 98.3938 88.8855 89.8276 89.5647 86.068C90.4195 81.3761 95.8913 82.9808 97.6466 87.474C100.135 93.8394 102.103 95.6046 103.905 96.3153Z" fill="var(--sapContent_Illustrative_Color22)"/>
<path d="M98.701 76.9295C98.701 76.9295 97.5258 66.4453 83.7583 56.2209C82.3312 55.1588 84.1399 52.5377 85.6586 53.7451C87.1849 54.9524 99.1742 66.2314 100.632 78.1751C99.7466 78.3661 98.9529 78.2057 98.6934 76.9372L98.701 76.9295Z" fill="var(--sapContent_Illustrative_Color22)"/>
</svg>
