<svg width="128" height="128" viewBox="0 0 128 128" fill="none" xmlns="http://www.w3.org/2000/svg" id="sapIllus-Phone-with-Icon-Demo-Small">
<rect y="41" width="128" height="55" rx="8" fill="var(--sapContent_Illustrative_Color20)"/>
<path d="M54.2425 64.6014L32.6261 68.271C29.8392 68.7392 28.8507 69.9597 31.7527 71.3723L63.8418 87.1231C64.9018 87.6433 66.0134 88.0595 67.1527 88.3636L68.435 88.7038C68.5621 88.7358 68.6931 88.7318 68.8161 88.6918L94.2238 80.4482C94.8431 80.2481 94.859 79.3718 94.2477 79.1477L54.5799 64.6294C54.4727 64.5894 54.3576 64.5774 54.2425 64.5974V64.6014Z" fill="var(--sapContent_Illustrative_Color21)"/>
<path d="M96.1175 79.8359L72.6432 88.5917C69.9436 89.6001 66.9106 88.6957 65.1876 86.3747L36.2665 47.482C35.151 45.9813 35.7901 43.8164 37.5409 43.1761L60.0307 36.2251C62.7977 35.2127 65.8982 36.1451 67.6609 38.5181L97.2847 75.8542C98.3129 77.2388 97.7293 79.2316 96.1215 79.8319L96.1175 79.8359Z" fill="var(--sapContent_Illustrative_Color16)"/>
<path d="M97.7928 77.687L97.9992 74.8258L35.9648 42.6639L35.7107 46.1334L66.9621 87.3512L97.7968 77.687H97.7928Z" fill="var(--sapContent_Illustrative_Color16)"/>
<path d="M96.3239 77.1909L72.8496 85.9467C70.15 86.9551 67.117 86.0508 65.394 83.7298L36.4729 44.841C35.3574 43.3403 35.9966 41.1754 37.7473 40.5351L60.2331 33.5841C63.0002 32.5717 65.2352 32.6077 67.8633 35.8771L97.4871 73.2132C98.5153 74.5978 97.9318 76.5867 96.3239 77.1909Z" fill="var(--sapContent_Illustrative_Color15)"/>
<path d="M95.2957 76.7748L72.6749 84.9984C69.7451 85.9708 67.645 84.6502 66.5294 83.1816L37.5051 44.9091C36.4729 43.4605 36.5801 41.9158 38.2912 41.2675L60.9914 34.1765C62.8691 33.4762 65.2154 34.0444 66.4223 35.6611L96.4232 72.9012C97.8246 74.6779 96.8757 76.1946 95.2997 76.7668H95.2957V76.7748Z" fill="var(--sapContent_Illustrative_Color8)"/>
<path d="M78.344 85.5346C78.4552 85.2184 78.344 84.8903 78.09 84.7982C77.8399 84.7102 77.5461 84.8943 77.4349 85.2104C77.3238 85.5266 77.4349 85.8547 77.689 85.9467C77.9391 86.0348 78.2329 85.8507 78.344 85.5346Z" fill="var(--sapContent_Illustrative_Color30)"/>
<path d="M79.813 85.0064C79.9241 84.6902 79.813 84.3621 79.5589 84.27C79.3088 84.182 79.015 84.3661 78.9039 84.6822C78.7927 84.9984 78.9039 85.3265 79.1579 85.4185C79.408 85.5066 79.7018 85.3225 79.813 85.0064Z" fill="var(--sapContent_Illustrative_Color30)"/>
<path d="M81.2937 84.4741C81.4048 84.158 81.2937 83.8299 81.0396 83.7378C80.7895 83.6498 80.4957 83.8339 80.3846 84.15C80.2734 84.4661 80.3846 84.7943 80.6386 84.8863C80.8888 84.9743 81.1825 84.7903 81.2937 84.4741Z" fill="var(--sapContent_Illustrative_Color30)"/>
<path d="M85.7639 83.0014L82.9929 84.0738C82.6832 84.1939 82.3497 83.9778 82.3259 83.6457V83.5736C82.3021 83.3495 82.4371 83.1455 82.6475 83.0694L85.4225 82.069C85.744 81.9529 86.0815 82.193 86.0815 82.5372C86.0815 82.7413 85.9544 82.9254 85.7639 83.0014Z" fill="var(--sapContent_Illustrative_Color30)"/>
<path d="M88.0466 81.985C88.1578 81.6689 88.0466 81.3407 87.7925 81.2487C87.5424 81.1606 87.2487 81.3447 87.1375 81.6609C87.0263 81.977 87.1375 82.3051 87.3916 82.3972C87.6417 82.4852 87.9355 82.3011 88.0466 81.985Z" fill="var(--sapContent_Illustrative_Color30)"/>
<path d="M89.5155 81.4567C89.6266 81.1405 89.5155 80.8124 89.2614 80.7204C89.0113 80.6323 88.7175 80.8164 88.6064 81.1325C88.4952 81.4487 88.6064 81.7768 88.8604 81.8689C89.1106 81.9569 89.4043 81.7728 89.5155 81.4567Z" fill="var(--sapContent_Illustrative_Color30)"/>
<path d="M56.7634 38.8104L48.3511 41.5436C47.3626 41.9078 46.2549 41.6317 45.5483 40.8433L43.9047 39.0105L56.2036 35.3129L57.5415 36.8056C58.2442 37.5899 58.137 38.5063 56.7634 38.8104Z" fill="var(--sapContent_Illustrative_Color15)"/>
<path d="M52.6863 38.6943L49.3753 39.7027C49.0776 39.7947 48.7481 39.6827 48.5496 39.4266C48.4067 39.2465 48.4781 38.9904 48.6885 38.9264L52.0908 37.8939C52.3528 37.8139 52.6466 37.9059 52.8331 38.126C53.0039 38.3261 52.9284 38.6222 52.6863 38.6983V38.6943Z" fill="var(--sapContent_Illustrative_Color30)"/>
<path d="M54.1869 38.2499C54.5084 38.2699 54.7704 38.0739 54.7704 37.8057C54.7704 37.5376 54.5084 37.3055 54.1869 37.2855C53.8653 37.2655 53.6033 37.4616 53.6033 37.7297C53.6033 37.9978 53.8653 38.2299 54.1869 38.2499Z" fill="var(--sapContent_Illustrative_Color30)"/>
<path d="M78.2652 63.2579L66.4159 67.7068C64.595 68.3909 62.2923 67.8358 61.3246 66.4805L56.3953 59.5706C55.7238 58.6283 55.9213 57.514 56.8851 56.7481L62.237 52.48C62.4147 52.3423 62.6596 52.2606 62.9322 52.252L70.9779 52.0024C72.3761 51.9594 73.7111 52.4972 74.4063 53.3749L79.5015 59.8073C80.5008 61.0679 79.9518 62.6211 78.2652 63.2579ZM59.0337 59.9707L63.2245 65.7792C63.6392 66.3558 64.6187 66.5924 65.3968 66.3041L77.2264 61.9198C77.9532 61.653 78.1941 60.9862 77.7676 60.444L73.4544 54.9454L70.0734 59.3813C69.4098 60.259 68.0511 60.7452 66.6015 60.6161L59.0377 59.9664L59.0337 59.9707ZM58.1055 58.4003L66.7556 59.1576C67.3678 59.2135 67.9563 59.0027 68.2446 58.6327L72.1668 53.5771C71.8863 53.4438 71.5466 53.362 71.203 53.3792L63.5365 53.6288L58.4847 57.7162C58.2477 57.9098 58.1213 58.1594 58.1134 58.4089L58.1055 58.4003Z" fill="var(--sapContent_Illustrative_Color13)"/>
</svg>
