<svg width="128" height="128" viewBox="0 0 128 128" fill="none" xmlns="http://www.w3.org/2000/svg" id="sapIllus-Ice-Cream-Demo-Small">
<rect y="41" width="128" height="55" rx="8" fill="var(--sapContent_Illustrative_Color20)"/>
<path d="M79.4869 47.0586L79.6519 47.6565C79.6099 47.6596 79.5709 47.6626 79.5289 47.6656C79.4779 47.4612 79.4299 47.2599 79.3759 47.0646C79.4479 47.0586 79.4839 47.0555 79.4869 47.0586Z" fill="var(--sapContent_Illustrative_Color16)"/>
<path d="M85.445 36.4519C85.232 36.7854 85.205 37.245 85.43 38.2423C85.646 39.2095 85.244 38.9933 85.244 38.9933C85.244 38.9933 84.797 37.8277 84.332 36.9927C84.122 36.6172 83.843 36.5781 84.041 37.0617C84.311 37.7106 84.671 38.9662 84.77 39.4048C84.833 39.6782 84.917 40.0356 84.419 39.9785C83.84 39.9125 83.0839 39.8944 82.3339 39.9035C82.3969 40.0597 82.454 40.2249 82.511 40.3991C83.303 40.4201 83.834 40.4742 83.834 40.5523C84.308 42.3637 83.276 42.3637 83.261 43.0365C83.258 43.1867 83.318 43.7635 83.336 43.8866C83.411 44.4123 83.036 44.2621 83.036 44.2621C82.577 42.628 82.0279 41.3093 81.5929 40.3901C81.5119 40.2219 81.4369 40.0657 81.3679 39.9245C81.2389 39.6661 81.1279 39.4529 81.0409 39.2907C80.8129 38.8641 80.5189 38.9782 80.6929 39.3417C80.7889 39.543 80.8789 39.7412 80.9629 39.9425C80.3989 39.9695 79.9249 40.0056 79.6429 40.0416C78.9499 40.1257 79.0159 40.4742 79.7179 40.4412C80.2039 40.4171 80.6929 40.4021 81.1549 40.3931C81.5569 41.3814 81.8509 42.3336 82.0639 43.1867C81.8299 43.1597 80.7559 43.0966 79.2799 43.1537C79.3489 43.3129 79.4179 43.4871 79.4899 43.6764C80.3209 43.6824 81.251 43.7184 82.211 43.8025C82.406 44.6737 82.514 45.4096 82.574 45.9293C82.625 46.3769 82.2859 46.7704 81.8389 46.7854C81.5389 46.7944 81.2179 46.8034 80.9869 46.8125C80.8039 46.8185 80.6719 46.9717 80.6869 47.1519C80.7649 48.0471 80.8099 48.2964 80.8399 48.6328C80.8909 49.1525 80.4979 49.0233 80.4979 49.0233C79.9429 46.7764 79.2979 44.9741 78.7579 43.6764C78.6859 43.5051 78.6169 43.3429 78.5509 43.1897C78.2749 42.5619 78.0409 42.0813 77.8729 41.7629C77.6239 41.2883 77.3509 41.5136 77.5729 41.9401C77.5729 41.9401 77.8009 42.3967 78.1249 43.2168C77.4469 43.2708 76.7239 43.3489 75.9769 43.4631C75.2689 43.5712 75.2809 43.8626 75.9769 43.8115C75.9859 43.7995 76.9099 43.7094 78.3049 43.6824C78.6319 44.5445 79.0219 45.695 79.3759 47.0648C79.0159 47.0828 77.8159 47.1789 76.1659 47.3862C76.2289 47.5634 76.2979 47.7557 76.3639 47.96C77.4229 47.8338 78.4909 47.7317 79.5289 47.6656C79.8109 48.8341 80.0599 50.1408 80.2219 51.5466C80.2489 51.7659 80.0839 51.9612 79.8649 51.9732C79.2619 52.0062 78.1579 52.0753 77.7739 52.1534C77.3989 52.2285 77.5009 52.4208 77.5369 52.8263C77.5729 53.2529 77.6239 53.5503 77.6479 53.9768C77.6659 54.2562 77.6209 54.5295 77.3389 54.5566C77.3059 54.5626 77.2879 54.5626 77.2879 54.5626C77.2879 54.5626 76.5499 51.066 75.5089 48.0651C75.4429 47.8758 75.3739 47.6866 75.3079 47.5034C74.9479 46.5331 74.5609 45.6439 74.1559 44.9861C73.8769 44.5295 73.5349 44.6617 73.8079 45.0852C73.8079 45.0852 74.2039 45.9774 74.7319 47.5845C73.6279 47.7437 72.4098 47.9479 71.1528 48.2003C71.2308 48.3565 71.3088 48.5157 71.3868 48.6839C72.4758 48.4977 73.6729 48.3084 74.9119 48.1402C75.2629 49.2516 75.6559 50.6364 76.0309 52.2556C75.7489 52.2736 74.5549 52.3997 72.8539 52.6461C72.9079 52.8353 72.9589 53.0216 73.0069 53.2108C74.0239 53.0636 75.0829 52.9284 76.1599 52.8203C76.3489 53.6884 76.5319 54.6166 76.6999 55.5989C76.8259 56.3379 76.8949 57.0738 76.9279 57.4944C76.9429 57.6927 76.8019 57.8669 76.6039 57.8969C76.0999 57.969 75.1609 58.1072 74.5669 58.2063C74.3539 58.2424 74.1709 58.4466 74.1619 58.6629C74.1319 59.5401 74.3749 60.1018 73.9998 60.1769C73.9638 60.1829 73.8679 60.1919 73.7599 60.1949V60.1439C73.7599 60.1439 73.2559 56.7404 72.2868 53.322C72.2328 53.1327 72.1789 52.9405 72.1219 52.7512C71.6959 51.3274 71.1888 49.9365 70.6038 48.8221C70.5228 48.6629 70.4388 48.5127 70.3518 48.3655C70.2918 48.2604 70.2288 48.1612 70.1658 48.0621C69.8778 47.6085 69.5448 47.7347 69.8178 48.1612C69.8178 48.1612 69.8658 48.2603 69.9498 48.4526C68.9418 48.6809 67.9278 48.9362 66.9498 49.2306C66.5838 49.3418 66.3918 49.4769 66.4548 49.543C66.5118 49.6031 66.7668 49.6061 67.2828 49.489C67.9668 49.3327 68.9598 49.1255 70.1418 48.9092C70.4628 49.6812 70.9698 51.036 71.4708 52.8533C70.3548 53.0306 69.1008 53.2499 67.7898 53.5142C67.8528 53.6944 67.9158 53.8897 67.9788 54.094C69.0648 53.8717 70.2978 53.6404 71.6269 53.4241C71.9899 54.8239 72.3409 56.4671 72.5989 58.3085L71.4648 58.5458C71.4648 58.5458 69.6228 57.179 67.8438 56.1276C67.6698 55.4818 67.4778 54.8449 67.2678 54.2381C67.2018 54.0429 67.1358 53.8506 67.0668 53.6644C66.6558 52.5499 66.2088 51.5647 65.7768 50.8587C65.6568 50.6575 65.5218 50.5704 65.4318 50.5704C65.3148 50.5704 65.2728 50.7176 65.4288 50.9579C65.4288 50.9579 65.9208 51.9732 66.5178 53.7816C65.7018 53.9618 64.8768 54.157 64.0548 54.3703C61.8798 53.5983 61.7778 54.091 62.6358 54.3253C64.7358 54.899 69.6918 57.2481 72.7849 60.6425C73.9579 61.9312 74.4139 63.5893 71.4708 67.143L54.6797 55.3496C54.6797 55.3496 55.9247 54.3763 56.9237 53.6013C57.6557 53.0336 58.2437 52.8533 59.0687 52.9525C59.1827 52.8744 63.3738 49.8434 68.4318 46.1786C76.3279 40.4622 86.345 33.2047 86.345 33.2047C86.393 33.1687 86.444 33.1386 86.492 33.1116C86.501 33.1086 86.51 33.1056 86.519 33.1026C87.017 32.9374 87.356 33.5772 86.87 34.2381C86.555 34.6676 85.916 35.71 85.445 36.4519Z" fill="var(--sapContent_Illustrative_Color15)"/>
<path d="M66.704 54.3582C66.833 54.7728 66.965 55.2234 67.097 55.704C66.857 55.5718 66.623 55.4547 66.401 55.3495C65.8819 55.1062 65.4169 54.902 65.0029 54.7307C65.4769 54.6256 66.05 54.4964 66.704 54.3582Z" fill="var(--sapContent_Illustrative_Color15)"/>
<path d="M66.4007 55.3495C65.8817 55.1062 65.4167 54.9019 65.0027 54.7307C65.4767 54.6255 66.0497 54.4964 66.7037 54.3582C66.8327 54.7727 66.9647 55.2233 67.0967 55.7039C66.8567 55.5718 66.6227 55.4546 66.4007 55.3495Z" fill="var(--sapContent_Illustrative_Color16)"/>
<path d="M87.959 34.4273C87.959 34.4273 76.9909 63.9889 76.8259 64.4395C77.1499 65.4127 77.1499 65.8663 76.5109 67.3863C75.8779 68.8853 75.3949 69.9006 75.3949 69.9006L71.4709 67.143C74.4139 63.5894 73.9579 61.9312 72.7849 60.6425C69.6918 57.2481 64.7358 54.899 62.6358 54.3253C61.7778 54.091 61.8798 53.5983 64.0548 54.3703C64.8768 54.1571 65.7018 53.9618 66.5178 53.7816C65.9208 51.9732 65.4288 50.9579 65.4288 50.9579C65.2728 50.7176 65.3148 50.5704 65.4318 50.5704C65.5218 50.5704 65.6568 50.6575 65.7768 50.8588C66.2088 51.5647 66.6558 52.55 67.0668 53.6644C67.1358 53.8507 67.2018 54.0429 67.2678 54.2382C67.4778 54.845 67.6698 55.4818 67.8438 56.1276C69.6228 57.179 71.4649 58.5458 71.4649 58.5458L72.5989 58.3085C72.3409 56.4671 71.9899 54.8239 71.6269 53.4241C70.2979 53.6404 69.0648 53.8717 67.9788 54.094C67.9158 53.8897 67.8528 53.6945 67.7898 53.5142C69.1008 53.2499 70.3548 53.0306 71.4709 52.8534C70.9699 51.036 70.4628 49.6812 70.1418 48.9092C68.9598 49.1255 67.9668 49.3328 67.2828 49.489C66.7668 49.6061 66.5118 49.6031 66.4548 49.543C66.3918 49.477 66.5838 49.3418 66.9498 49.2306C67.9278 48.9362 68.9418 48.6809 69.9498 48.4526C69.8658 48.2604 69.8178 48.1612 69.8178 48.1612C69.5448 47.7347 69.8778 47.6085 70.1659 48.0621C70.2289 48.1612 70.2919 48.2604 70.3519 48.3655C70.4389 48.5127 70.5228 48.6629 70.6038 48.8221C71.1888 49.9366 71.6959 51.3274 72.1219 52.7512C72.1789 52.9405 72.2329 53.1327 72.2869 53.322C73.2559 56.7404 73.7569 60.1439 73.7569 60.1439V60.1949C73.8679 60.1919 73.9639 60.1829 73.9999 60.1769C74.3749 60.1018 74.1319 59.5401 74.1619 58.6629C74.1709 58.4467 74.3539 58.2424 74.5669 58.2063C75.1609 58.1072 76.0999 57.969 76.6039 57.8969C76.8019 57.8669 76.9429 57.6927 76.9279 57.4944C76.8949 57.0739 76.8259 56.3379 76.6999 55.5989C76.5319 54.6167 76.3489 53.6884 76.1599 52.8203C75.0829 52.9285 74.0239 53.0636 73.0069 53.2108C72.9589 53.0216 72.9079 52.8353 72.8539 52.6461C74.5549 52.3998 75.7489 52.2736 76.0309 52.2556C75.6559 50.6365 75.2629 49.2517 74.9119 48.1402C73.6729 48.3084 72.4759 48.4977 71.3868 48.6839C71.3088 48.5157 71.2308 48.3565 71.1528 48.2003C72.4098 47.948 73.6279 47.7437 74.7319 47.5845C74.2039 45.9774 73.8079 45.0852 73.8079 45.0852C73.5349 44.6617 73.8769 44.5295 74.1559 44.9861C74.5609 45.644 74.9479 46.5331 75.3079 47.5034C75.3739 47.6866 75.4429 47.8759 75.5089 48.0651C76.5499 51.066 77.2879 54.5626 77.2879 54.5626C77.2879 54.5626 77.3059 54.5626 77.3389 54.5566C77.6209 54.5295 77.6659 54.2562 77.6479 53.9768C77.6239 53.5503 77.5729 53.2529 77.5369 52.8263C77.5009 52.4208 77.3989 52.2285 77.7739 52.1534C78.1579 52.0753 79.2619 52.0063 79.8649 51.9732C80.0839 51.9612 80.249 51.7659 80.222 51.5467C80.06 50.1408 79.8109 48.8341 79.5289 47.6656C78.4909 47.7317 77.4229 47.8338 76.3639 47.96C76.2979 47.7557 76.2289 47.5635 76.1659 47.3862C77.8159 47.179 79.0159 47.0828 79.3759 47.0648C79.0219 45.695 78.6319 44.5445 78.3049 43.6824C76.9099 43.7094 75.9859 43.7995 75.9769 43.8116C75.2809 43.8626 75.2689 43.5713 75.9769 43.4631C76.7239 43.349 77.4469 43.2709 78.1249 43.2168C77.8009 42.3967 77.5729 41.9401 77.5729 41.9401C77.3509 41.5136 77.6239 41.2883 77.8729 41.7629C78.0409 42.0813 78.2749 42.5619 78.5509 43.1898C78.6169 43.343 78.6859 43.5052 78.7579 43.6764C79.2979 44.9741 79.9429 46.7764 80.4979 49.0234C80.4979 49.0234 80.8909 49.1525 80.8399 48.6329C80.8099 48.2964 80.7649 48.0471 80.6869 47.1519C80.6719 46.9717 80.8039 46.8185 80.9869 46.8125C81.2179 46.8035 81.5389 46.7945 81.8389 46.7854C82.2859 46.7704 82.625 46.3769 82.574 45.9293C82.514 45.4096 82.406 44.6737 82.211 43.8026C81.251 43.7184 80.3209 43.6824 79.4899 43.6764C79.4179 43.4871 79.3489 43.3129 79.2799 43.1537C80.756 43.0966 81.8299 43.1597 82.0639 43.1867C81.8509 42.3336 81.557 41.3814 81.155 40.3931C80.693 40.4021 80.2039 40.4171 79.7179 40.4412C79.0159 40.4742 78.9499 40.1258 79.6429 40.0416C79.9249 40.0056 80.3989 39.9696 80.963 39.9425C80.879 39.7413 80.7889 39.543 80.6929 39.3417C80.5189 38.9783 80.813 38.8641 81.041 39.2907C81.128 39.4529 81.239 39.6662 81.368 39.9245C81.437 40.0657 81.512 40.2219 81.593 40.3901C82.028 41.3093 82.577 42.628 83.036 44.2622C83.036 44.2622 83.411 44.4123 83.336 43.8867C83.318 43.7635 83.258 43.1867 83.261 43.0366C83.276 42.3637 84.308 42.3637 83.834 40.5523C83.834 40.4742 83.303 40.4201 82.511 40.3991C82.454 40.2249 82.397 40.0597 82.334 39.9035C83.084 39.8945 83.84 39.9125 84.419 39.9786C84.917 40.0356 84.833 39.6782 84.77 39.4048C84.671 38.9662 84.311 37.7106 84.041 37.0618C83.843 36.5781 84.122 36.6172 84.332 36.9927C84.797 37.8278 85.244 38.9933 85.244 38.9933C85.244 38.9933 85.646 39.2096 85.43 38.2423C85.205 37.245 85.232 36.7854 85.445 36.452C85.916 35.71 86.555 34.6676 86.87 34.2381C87.356 33.5772 87.017 32.9374 86.519 33.1026C87.335 32.7091 88.295 33.5111 87.959 34.4273Z" fill="var(--sapContent_Illustrative_Color16)"/>
<path d="M31.5374 75.8396C33.2274 75.8396 34.5974 75.4052 34.5974 74.8693C34.5974 74.3334 33.2274 73.899 31.5374 73.899C29.8474 73.899 28.4774 74.3334 28.4774 74.8693C28.4774 75.4052 29.8474 75.8396 31.5374 75.8396Z" fill="var(--sapContent_Illustrative_Color21)"/>
<path d="M44.1072 79.7922C44.1072 78.3744 41.2482 77.2239 37.7201 77.2239C34.1921 77.2239 31.3331 78.3744 31.3331 79.7922C31.3331 81.2101 34.1921 82.3606 37.7201 82.3606C41.2482 82.3606 44.1072 81.2101 44.1072 79.7922Z" fill="var(--sapContent_Illustrative_Color21)"/>
<path d="M98.8669 71.0029C96.2959 71.2102 88.0848 71.9342 81.8477 72.4869C76.6397 70.3961 68.1976 69.4349 58.6695 69.4349C42.8564 69.4349 47.7944 72.3517 47.7944 78.4256C47.7944 82.6191 33.8143 87.5605 42.8054 89.4139C45.2054 89.9096 55.6755 90.8138 55.1775 88.4136C55.6755 88.5128 57.7725 88.9123 59.2665 88.9123C74.7137 88.9123 86.7378 84.4365 87.2868 78.5698C92.3358 76.1366 100.556 72.1835 101.252 71.9131C102.767 71.3244 101.504 70.7927 98.8669 71.0059V71.0029Z" fill="var(--sapContent_Illustrative_Color21)"/>
<path d="M77.8215 79.4229C77.8215 80.1919 77.6355 81.048 77.2545 81.9072C78.1155 77.5395 74.3775 76.1757 72.5685 75.9264C71.2665 75.8182 75.2445 75.3887 75.9465 71.3033C75.8565 72.6881 75.5565 74.0219 75.0825 75.2865C76.7145 76.0796 77.8215 77.6326 77.8215 79.4229Z" fill="var(--sapContent_Illustrative_Color8)"/>
<path d="M72.5682 75.926C74.3772 76.1753 78.1153 77.5391 77.2543 81.9068C76.3633 83.9405 74.4042 85.9861 71.3382 86.9474C66.9911 88.3112 62.0531 88.8098 57.6641 88.6416V88.6025C59.4641 88.6776 61.0511 88.4553 61.6601 88.215C64.4531 87.1156 62.7851 84.3039 60.4631 84.1177C54.178 83.619 52.168 82.6638 53.731 82.7209C56.5241 82.82 60.2141 82.4205 62.2601 81.0717C64.3061 79.723 63.9611 76.9744 61.7621 76.9263C58.8011 76.8602 58.0691 77.458 59.7311 76.1273C67.6692 69.771 64.1381 55.7277 56.4281 54.8115C59.2931 54.9737 62.8991 55.9469 65.6501 57.512C70.5732 60.3116 75.0972 65.4393 75.8802 68.8037C76.0002 69.3234 75.9763 69.8731 75.9763 70.4198C75.9763 70.7172 75.9673 71.0116 75.9463 71.303C75.2443 75.3883 71.2662 75.8179 72.5682 75.926Z" fill="var(--sapContent_Illustrative_Color25)"/>
<path d="M61.7618 76.9267C63.9608 76.9748 64.3058 79.7234 62.2598 81.0721C60.2138 82.4209 56.5237 82.8204 53.7307 82.7213C52.1677 82.6642 54.1777 83.6194 60.4628 84.1181C62.7848 84.3043 64.4528 87.116 61.6598 88.2154C61.0508 88.4558 59.4638 88.678 57.6638 88.6029C55.9627 88.5339 54.0727 88.1974 52.6327 87.3653C51.3367 86.6144 48.6907 84.9682 47.2447 84.6167C45.8166 84.2743 45.0516 84.6167 45.7986 85.0163C47.9796 86.1818 45.5136 88.8012 41.5266 88.8973C38.1365 88.5158 36.4536 87.4645 36.4536 85.9835C36.4536 85.1214 37.3026 84.5507 38.5506 84.2082C36.9096 83.7817 36.1866 82.9466 36.1866 81.6549C36.1866 81.5137 36.2046 81.3785 36.2316 81.2433H36.2165C36.5555 80.222 37.3536 79.9937 37.8666 79.8285C38.0256 79.7774 38.0256 79.5581 37.8666 79.5011C37.0626 79.1977 36.5165 78.6239 36.5165 78.6239C36.5165 80.4894 35.0555 81.0361 33.9035 81.1803C30.9875 80.7867 30.7325 79.456 30.7325 78.3926C30.7325 76.3259 32.7785 75.4758 35.1545 75.0943C35.6795 72.556 37.0745 70.9609 39.1716 70.4863C39.1566 71.2343 39.1866 72.0844 39.3096 72.9315C39.3096 72.9315 41.4066 72.9315 42.0546 74.9291C42.0546 74.9291 41.0976 76.404 40.7166 77.3953C40.6716 77.5095 40.7886 77.6236 40.8996 77.5726C41.5926 77.2511 43.4406 76.6504 45.5946 78.0261C45.5946 78.0261 46.4436 74.2292 49.3357 74.6798C48.8887 76.4281 51.2317 78.5729 54.9727 75.9775C55.9597 75.2926 54.6277 75.8813 53.0287 75.9264C51.3337 75.9775 48.8257 74.8871 49.7857 72.2646C50.1517 71.2643 50.9167 70.6665 51.3637 70.0507C52.0387 69.1225 52.1677 68.3025 51.3337 67.3863C50.2837 66.2388 50.3857 64.905 50.2837 64.2742L39.3756 68.0802C40.5276 61.3003 46.5967 55.7281 54.4087 54.8509C55.0147 54.7818 55.6957 54.7728 56.4247 54.8119C64.1348 55.7281 67.6659 69.7714 59.7278 76.1277C58.0658 77.4584 58.7978 76.8606 61.7588 76.9267H61.7618ZM45.2676 84.0941C45.3426 84.1121 45.4146 84.1331 45.4866 84.1511C45.4806 84.1121 45.4716 84.07 45.4686 84.031C45.4026 84.052 45.3366 84.073 45.2676 84.0941Z" fill="var(--sapContent_Illustrative_Color8)"/>
<path d="M57.6643 88.6032V88.6422C53.6142 88.489 50.0322 87.7621 47.8122 86.6176C47.6472 88.0414 46.1742 89.267 42.3731 88.9787C42.0791 88.9576 41.7971 88.9306 41.5271 88.8976C45.5141 88.8014 47.9802 86.182 45.7991 85.0165C45.0521 84.617 45.8172 84.2745 47.2452 84.617C48.6912 84.9684 51.3372 86.6146 52.6332 87.3656C54.0732 88.1977 55.9633 88.5341 57.6643 88.6032Z" fill="var(--sapContent_Illustrative_Color25)"/>
<path d="M53.0326 75.9261C54.6317 75.881 55.9637 75.2923 54.9767 75.9772C51.2356 78.5725 48.8926 76.4277 49.3396 74.6795C46.4476 74.2289 45.5986 78.0258 45.5986 78.0258C43.4445 76.65 41.5965 77.2508 40.9035 77.5722C40.7925 77.6233 40.6755 77.5092 40.7205 77.395C41.1015 76.4037 42.0585 74.9288 42.0585 74.9288C41.4105 72.9312 39.3135 72.9312 39.3135 72.9312C39.1905 72.0841 39.1605 71.234 39.1755 70.486C39.1755 70.483 39.1815 70.483 39.1845 70.483C39.1845 70.462 39.1845 70.4409 39.1845 70.4199C39.1845 70.2968 39.1845 70.1766 39.1905 70.0564C39.1905 70.0324 39.1905 70.0084 39.1935 69.9843C39.2115 69.5548 39.2415 69.1763 39.2715 68.8699C39.2745 68.8399 39.2775 68.8098 39.2805 68.7828C39.3075 68.5455 39.3435 68.3142 39.3825 68.0799L50.2906 64.2739C50.3926 64.9047 50.2906 66.2385 51.3406 67.386C52.1746 68.3021 52.0456 69.1222 51.3706 70.0504C50.9236 70.6662 50.1586 71.264 49.7926 72.2643C48.8326 74.8867 51.3406 75.9772 53.0356 75.9261H53.0326Z" fill="var(--sapContent_Illustrative_Color25)"/>
<path d="M39.1906 69.9848C39.1996 69.6093 39.2267 69.2368 39.2687 68.8704C39.2387 69.1768 39.2086 69.5553 39.1906 69.9848Z" fill="var(--sapContent_Illustrative_Color8)"/>
<path d="M37.8698 79.5013C38.0258 79.5583 38.0258 79.7776 37.8698 79.8287C37.3567 79.9939 36.5587 80.2222 36.2197 81.2435C35.8987 81.2826 35.5747 81.2976 35.2597 81.2886C34.7557 81.2736 34.3087 81.2375 33.9097 81.1805C35.0617 81.0363 36.5227 80.4896 36.5227 78.6241C36.5227 78.6241 37.0687 79.1979 37.8728 79.5013H37.8698Z" fill="var(--sapContent_Illustrative_Color25)"/>
<path d="M31.939 74.187C31.939 74.8539 31.6991 75.2955 29.971 75.2955C28.243 75.2955 28 74.8539 28 74.187C28 73.5202 28.882 72.9795 29.971 72.9795C31.0601 72.9795 31.939 73.5202 31.939 74.187Z" fill="var(--sapContent_Illustrative_Color8)"/>
<path d="M50.3205 64.3408C50.5545 65.2119 49.3305 65.9449 48.9255 66.7049C48.6585 67.2035 48.4275 67.8704 48.1935 68.5342C47.5935 68.8016 46.6304 68.6364 45.1994 70.3997C45.0674 70.5619 44.9594 70.7181 44.8664 70.8623C44.1584 70.5829 43.3844 69.889 42.4064 67.3868C41.7164 65.6204 39.5654 64.9896 39.2294 66.834C38.9624 68.312 40.7714 71.6794 43.9454 72.0969C43.8104 72.19 43.6454 72.2681 43.4384 72.3312C43.3214 72.3672 43.1954 72.3913 43.0574 72.4063V72.3823C41.7584 72.3312 40.3364 71.1567 39.9134 70.634C37.1773 67.2486 38.6114 63.4997 39.9644 64.1395C42.7064 65.4402 44.7524 63.8902 46.1474 62.2921C47.2305 61.0545 48.2805 61.0755 49.1385 61.9557C49.6335 62.5384 50.0475 63.3164 50.3205 64.3408ZM49.1415 63.8902C49.4535 63.5778 49.2975 62.8809 48.8415 62.4423C48.1935 61.8175 47.6205 61.8175 47.4195 62.1419C47.2244 62.4603 47.6265 63.0191 48.0435 63.4907C48.4425 63.9413 48.9405 64.0915 49.1415 63.8902Z" fill="var(--sapContent_Illustrative_Color23)"/>
<path d="M48.8411 62.4419C49.2971 62.8805 49.4531 63.5774 49.1411 63.8898C48.9401 64.0911 48.4421 63.9409 48.0431 63.4903C47.6261 63.0187 47.2241 62.46 47.4191 62.1415C47.6201 61.8171 48.1931 61.8171 48.8411 62.4419Z" fill="var(--sapContent_Illustrative_Color25)"/>
<path d="M49.1381 61.9555C48.2801 61.0754 47.2301 61.0544 46.147 62.292C44.752 63.8901 42.706 65.4401 39.964 64.1394C38.611 63.4996 37.1769 67.2484 39.913 70.6339C40.336 71.1565 41.758 72.3311 43.054 72.3821V72.4062C41.566 72.5534 39.031 71.3097 38.137 68.1136C37.054 64.2415 38.716 61.0424 43.237 61.0093C44.659 60.2854 47.407 59.9219 49.1381 61.9555ZM44.752 62.8417C45.598 61.8174 46.2311 61.2016 45.598 61.1925C43.555 61.1685 42.532 62.6675 42.856 63.3163C43.291 64.1875 44.11 63.6137 44.752 62.8417Z" fill="var(--sapContent_Illustrative_Color8)"/>
<path d="M45.598 61.1924C46.231 61.2014 45.598 61.8172 44.752 62.8416C44.11 63.6136 43.291 64.1873 42.856 63.3162C42.532 62.6673 43.555 61.1684 45.598 61.1924Z" fill="var(--sapContent_Illustrative_Color23)"/>
<path d="M44.8659 70.8619C44.5119 71.4026 44.3589 71.8141 43.9449 72.0965C40.7709 71.6789 38.9619 68.3115 39.2289 66.8336C39.5649 64.9892 41.7159 65.62 42.4059 67.3863C43.3839 69.8886 44.1579 70.5825 44.8659 70.8619Z" fill="var(--sapContent_Illustrative_Color22)"/>
<path d="M42.8204 63.2413C42.8204 63.2413 42.3584 59.1199 36.9464 55.1006C36.3854 54.6831 37.0964 53.6527 37.6934 54.1274C38.2934 54.602 43.0064 59.0358 43.5795 63.7309C43.2314 63.806 42.9194 63.7429 42.8174 63.2443L42.8204 63.2413Z" fill="var(--sapContent_Illustrative_Color22)"/>
</svg>
