<svg width="320" height="240" viewBox="0 0 320 240" fill="none" xmlns="http://www.w3.org/2000/svg" id="sapIllus-Phone-with-Icon-Demo-Large">
<rect y="60.0727" width="320" height="138" rx="24" fill="var(--sapContent_Illustrative_Color20)"/>
<path d="M135.423 120.308L80.8588 129.517C73.824 130.692 71.3288 133.755 78.6541 137.3L159.654 176.829C162.329 178.134 165.135 179.179 168.011 179.942L171.248 180.796C171.569 180.876 171.899 180.866 172.21 180.766L236.344 160.077C237.907 159.575 237.947 157.376 236.404 156.814L136.275 120.378C136.004 120.278 135.714 120.248 135.423 120.298V120.308Z" fill="var(--sapContent_Illustrative_Color21)"/>
<path d="M241.124 158.541L181.87 180.514C175.056 183.045 167.4 180.776 163.051 174.951L90.048 77.3443C87.2321 73.5783 88.8455 68.1451 93.2647 66.5382L150.033 49.0938C157.018 46.553 164.844 48.8929 169.294 54.8483L244.07 148.548C246.666 152.023 245.193 157.024 241.134 158.531L241.124 158.541Z" fill="var(--sapContent_Illustrative_Color16)"/>
<path d="M245.353 153.148L245.874 145.967L89.2863 65.2528L88.6449 73.96L167.53 177.401L245.363 153.148H245.353Z" fill="var(--sapContent_Illustrative_Color16)"/>
<path d="M241.645 151.903L182.391 173.877C175.577 176.407 167.921 174.138 163.572 168.313L90.569 70.7165C87.7531 66.9504 89.3664 61.5172 93.7857 59.9104L150.544 42.4659C157.529 39.9251 163.171 40.0155 169.805 48.2205L244.581 141.92C247.177 145.395 245.704 150.386 241.645 151.903Z" fill="var(--sapContent_Illustrative_Color15)"/>
<path d="M239.05 150.859L181.95 171.497C174.555 173.937 169.254 170.623 166.438 166.937L93.1745 70.8874C90.569 67.2518 90.8396 63.3753 95.1586 61.7484L152.458 43.9524C157.198 42.1949 163.121 43.621 166.167 47.6783L241.896 141.137C245.433 145.596 243.038 149.402 239.06 150.838H239.05V150.859Z" fill="var(--sapContent_Illustrative_Color8)"/>
<path d="M196.26 172.842C196.541 172.049 196.26 171.225 195.619 170.994C194.987 170.773 194.246 171.235 193.965 172.029C193.685 172.822 193.965 173.646 194.607 173.877C195.238 174.098 195.979 173.636 196.26 172.842Z" fill="var(--sapContent_Illustrative_Color30)"/>
<path d="M199.968 171.517C200.248 170.723 199.968 169.9 199.327 169.669C198.695 169.448 197.954 169.91 197.673 170.703C197.393 171.497 197.673 172.32 198.314 172.551C198.946 172.772 199.687 172.31 199.968 171.517Z" fill="var(--sapContent_Illustrative_Color30)"/>
<path d="M203.706 170.181C203.986 169.388 203.706 168.564 203.064 168.333C202.433 168.112 201.691 168.574 201.411 169.367C201.13 170.161 201.411 170.984 202.052 171.215C202.684 171.436 203.425 170.974 203.706 170.181Z" fill="var(--sapContent_Illustrative_Color30)"/>
<path d="M214.989 166.485L207.995 169.176C207.213 169.478 206.371 168.935 206.311 168.102V167.921C206.251 167.359 206.592 166.846 207.123 166.656L214.128 164.145C214.939 163.854 215.791 164.456 215.791 165.32C215.791 165.832 215.47 166.294 214.989 166.485Z" fill="var(--sapContent_Illustrative_Color30)"/>
<path d="M220.751 163.934C221.032 163.141 220.751 162.317 220.11 162.086C219.479 161.865 218.737 162.327 218.457 163.121C218.176 163.914 218.457 164.738 219.098 164.969C219.729 165.189 220.471 164.727 220.751 163.934Z" fill="var(--sapContent_Illustrative_Color30)"/>
<path d="M224.459 162.608C224.74 161.815 224.459 160.991 223.818 160.76C223.186 160.539 222.445 161.001 222.164 161.795C221.884 162.588 222.164 163.412 222.806 163.643C223.437 163.864 224.179 163.402 224.459 162.608Z" fill="var(--sapContent_Illustrative_Color30)"/>
<path d="M98.1248 87.3471V89.7976C98.1248 90.6211 98.3953 91.4245 98.8964 92.0773L106.803 102.421L107.324 97.621L98.1148 87.3371L98.1248 87.3471Z" fill="var(--sapContent_Illustrative_Color16)"/>
<path d="M98.1248 87.347L100.249 86.7244L108.436 97.1488C109.008 97.8719 109.318 98.7758 109.318 99.6997V101.698L106.803 102.421V100.101C106.803 99.1976 106.502 98.3038 105.961 97.5907L98.1248 87.337V87.347Z" fill="var(--sapContent_Illustrative_Color15)"/>
<path d="M141.786 55.582L120.552 62.4412C118.057 63.3551 115.261 62.6622 113.477 60.6837L109.328 56.0841L140.373 46.8045L143.75 50.5505C145.524 52.5189 145.253 54.8187 141.786 55.582Z" fill="var(--sapContent_Illustrative_Color15)"/>
<path d="M131.495 55.2904L123.137 57.8212C122.386 58.0521 121.554 57.7709 121.053 57.1282C120.692 56.6763 120.872 56.0335 121.403 55.8728L129.991 53.2818C130.653 53.0809 131.394 53.3119 131.865 53.8643C132.296 54.3664 132.106 55.1096 131.495 55.3004V55.2904Z" fill="var(--sapContent_Illustrative_Color30)"/>
<path d="M135.282 54.1754C136.094 54.2256 136.756 53.7335 136.756 53.0606C136.756 52.3877 136.094 51.8053 135.282 51.755C134.471 51.7048 133.809 52.1969 133.809 52.8698C133.809 53.5427 134.471 54.1252 135.282 54.1754Z" fill="var(--sapContent_Illustrative_Color30)"/>
<path d="M195.729 116.702L165.729 127.042C161.119 128.632 155.289 127.342 152.839 124.192L140.359 108.132C138.659 105.942 139.159 103.352 141.599 101.572L155.149 91.652C155.599 91.332 156.219 91.142 156.909 91.122L177.279 90.542C180.819 90.442 184.199 91.692 185.959 93.732L198.859 108.682C201.389 111.612 199.999 115.222 195.729 116.702ZM147.039 109.062L157.649 122.562C158.699 123.902 161.179 124.452 163.149 123.782L193.099 113.592C194.939 112.972 195.549 111.422 194.469 110.162L183.549 97.382L174.989 107.692C173.309 109.732 169.869 110.862 166.199 110.562L147.049 109.052L147.039 109.062ZM144.689 105.412L166.589 107.172C168.139 107.302 169.629 106.812 170.359 105.952L180.289 94.202C179.579 93.892 178.719 93.702 177.849 93.742L158.439 94.322L145.649 103.822C145.049 104.272 144.729 104.852 144.709 105.432L144.689 105.412Z" fill="var(--sapContent_Illustrative_Color13)"/>
</svg>
