<svg width="160" height="160" viewBox="0 0 160 160" fill="none" xmlns="http://www.w3.org/2000/svg" id="sapIllus-UnknownFolder-Demo-Medium">
<rect y="50.5363" width="160" height="69" rx="12" fill="var(--sapContent_Illustrative_Color20)"/>
<path d="M86.1479 98.1281C84.7323 97.5522 83.2495 97.2259 81.7955 97.3075L64.261 98.1713L61.9864 97.3555C60.8443 96.866 58.7616 96.7461 57.3364 96.794L38.6118 97.5858C36.7403 97.677 36.4044 98.0417 37.4313 98.5504L39.6291 99.4525L31.2362 99.9228C29.4654 100.024 28.8176 100.479 29.0432 100.907C29.2015 101.204 29.763 101.425 30.8763 101.732L55.1386 109.765C57.9123 110.701 58.6129 111.435 64.6593 110.701L104.834 106.176C106.365 105.955 106.36 105.264 104.853 104.645L86.1719 98.0945L86.1527 98.1329L86.1479 98.1281Z" fill="var(--sapContent_Illustrative_Color21)"/>
<path d="M46.6511 64.0503C43.2845 65.174 42.2731 67.9272 43.4811 70.6149C45.3494 74.7727 57.1909 100.015 58.3989 102.094C59.8083 104.515 63.6618 105.395 63.6618 105.395L46.6511 64.0503Z" fill="var(--sapContent_Illustrative_Color22)"/>
<path d="M52.3072 56.3995C52.3072 56.3995 48.6971 57.1767 49.7085 60.0844C50.7199 62.9921 50.9259 63.6055 50.9259 63.6055L52.3072 63.2263V56.4042V56.3995Z" fill="var(--sapContent_Illustrative_Color22)"/>
<path d="M74.3514 56.3336L73.2277 53.1543C72.8859 51.5577 71.4109 50.6212 69.936 51.0567L52.4617 56.2868C50.9774 56.7316 50.0128 58.0895 50.5232 59.7751L51.4924 62.5798L46.7586 63.9985C45.457 64.3872 44.4784 65.4173 44.0429 66.6721C43.6683 67.7491 43.7901 68.9384 44.2677 69.9778L58.6236 100.619C59.2136 101.902 59.4992 102.585 60.6978 103.512L63.3152 105.156C63.9614 105.559 64.7153 105.751 65.4785 105.704L66.1106 105.582L114.746 89.9104C116.726 89.3017 116.459 84.4555 116.103 82.3625L104.075 50.4807C103.33 48.1115 101.645 48.1256 99.5422 48.7577L74.342 55.06V56.3336H74.3514Z" fill="var(--sapContent_Illustrative_Color15)"/>
<path d="M60.4778 103.433L63.0952 105.076C63.7414 105.479 64.7246 105.755 65.4832 105.709L66.1012 105.507L114.755 89.9152C116.736 89.3065 116.469 84.4603 116.113 83.6316L104.309 51.099L47.5828 69.374C45.8644 69.8516 45.0028 71.481 45.7333 73.1058L58.6236 100.628C59.2136 101.911 59.2744 102.511 60.4731 103.433H60.4778Z" fill="var(--sapContent_Illustrative_Color16)"/>
<path fill-rule="evenodd" clip-rule="evenodd" d="M101.059 39L102.211 44.7873L101.176 44.9933L100.024 39.206L101.059 39Z" fill="var(--sapContent_Illustrative_Color22)"/>
<path fill-rule="evenodd" clip-rule="evenodd" d="M107.422 39.9414L104.908 45.2839L103.953 44.8391L106.467 39.4966L107.422 39.9414Z" fill="var(--sapContent_Illustrative_Color22)"/>
<path fill-rule="evenodd" clip-rule="evenodd" d="M111.796 45.1717L106.416 47.6345L105.976 46.6747L111.356 44.2118L111.796 45.1717Z" fill="var(--sapContent_Illustrative_Color22)"/>
<path d="M86.6565 55.8789L86.5207 51.8475C86.1976 50.3398 84.5588 49.2628 82.8778 49.8294L65.8952 54.8816C64.4483 55.317 63.7647 56.5251 63.938 58.3933L64.3547 62.2375L59.3165 63.7264C57.2329 64.3492 56.0389 66.3157 56.5118 68.8535L61.8075 102.678C62.0838 104.551 64.3875 106.181 66.3634 105.567L113.575 90.8135C115.485 90.2189 117.391 88.3413 117.335 85.265L115.059 51.4588C114.685 49.3237 112.742 48.0642 110.723 48.6682L86.6658 55.8789H86.6611H86.6565Z" fill="var(--sapContent_Illustrative_Color26)"/>
<path d="M87.0357 55.8185L86.5862 52.0867C86.2678 50.6024 84.8725 49.7362 83.4631 50.1623L66.7473 55.1395C65.3239 55.5656 64.7574 56.6004 64.8182 58.5904L65.1132 62.3971L60.5667 63.755C58.5159 64.3683 57.4389 66.2694 57.8276 68.662L62.6316 102.295C63.1279 104.201 65.0992 105.245 67.0423 104.636L114.554 89.7932C116.431 89.2079 117.363 87.5878 117.34 85.2701L114.998 51.4593C114.628 49.3616 112.718 48.1255 110.733 48.7201L87.0451 55.8232H87.0404L87.0357 55.8185Z" fill="var(--sapContent_Illustrative_Color27)"/>
<path d="M91.1226 69.8343C90.2866 69.695 89.3311 69.7646 88.291 70.0433C86.9622 70.3967 85.8475 70.9839 84.9716 71.7951C84.0957 72.6013 83.4587 73.5617 83.0656 74.6417L82.9959 74.8357L85.1259 75.418L85.2204 75.209C85.5837 74.3928 86.0266 73.721 86.5342 73.2084C87.0319 72.7108 87.7037 72.3475 88.5348 72.1285C89.0573 71.9892 89.55 71.9543 90.0079 72.029C90.4558 72.0986 90.824 72.2778 91.1077 72.5664C91.3914 72.8501 91.5606 73.2383 91.6103 73.716C91.6501 74.1241 91.6153 74.5023 91.5058 74.8308C91.3914 75.1642 91.2321 75.4777 91.0231 75.7514C90.8091 76.0351 90.5205 76.3685 90.1671 76.7368C90.1671 76.7368 90.1522 76.7517 90.1422 76.7617C90.0775 76.8214 89.9979 76.906 89.8984 77.0155C89.4107 77.5281 89.0126 77.9759 88.7239 78.3591C88.4204 78.7523 88.1765 79.2201 87.9924 79.7426C87.8082 80.2701 87.7386 80.8673 87.7933 81.5093L87.8132 81.7183L90.1671 81.0913L90.1522 80.8922C90.1174 80.514 90.1671 80.1607 90.2915 79.8422C90.4209 79.5137 90.5852 79.2201 90.7792 78.9713C90.9883 78.7075 91.2968 78.3492 91.6999 77.9212C92.2324 77.3788 92.6703 76.8861 93.0087 76.4631C93.3571 76.0202 93.6408 75.5026 93.8547 74.9203C94.0687 74.3331 94.1434 73.6812 94.0737 72.9845C93.9891 72.1185 93.6905 71.4069 93.1779 70.8694C92.6653 70.327 91.9736 69.9836 91.1326 69.8443L91.1226 69.8343Z" fill="var(--sapContent_Illustrative_Color16)"/>
<path d="M89.3681 82.6705C88.9053 82.795 88.537 83.0338 88.2683 83.3872C87.9995 83.7405 87.8851 84.1237 87.9299 84.5318C87.9747 84.9398 88.1638 85.2633 88.4922 85.4524C88.8207 85.6415 89.2138 85.6813 89.6766 85.5569C90.1395 85.4325 90.4928 85.1986 90.7566 84.8503C91.0203 84.5019 91.1348 84.1137 91.09 83.6907C91.0452 83.2677 90.866 82.9791 90.5426 82.785C90.2191 82.5909 89.8259 82.5511 89.3731 82.6705H89.3681Z" fill="var(--sapContent_Illustrative_Color16)"/>
<path d="M87.5718 65.0677C79.8781 67.0981 74.3541 74.5679 75.2499 81.5699C76.1258 88.4176 82.8441 92.2794 90.2343 90.3137C97.6195 88.348 103.158 81.2365 102.581 74.3191C102.004 67.4017 95.2556 63.0372 87.5718 65.0677ZM90.0153 88.2136C83.8792 89.8459 77.9522 86.7754 77.6088 80.9428C76.8922 75.1551 81.4606 68.9991 87.8057 67.322C94.1459 65.6449 100.267 69.2231 100.227 74.9411C100.73 80.6691 96.1415 86.5813 90.0104 88.2136H90.0153Z" fill="var(--sapContent_Illustrative_Color16)"/>
</svg>
