<svg width="160" height="160" viewBox="0 0 160 160" fill="none" xmlns="http://www.w3.org/2000/svg" id="sapIllus-Ice-Cream-Demo-Medium">
<rect y="50.5363" width="160" height="69" rx="12" fill="var(--sapContent_Illustrative_Color20)"/>
<path d="M100.133 58.5115L100.338 59.2564C100.286 59.2602 100.237 59.2639 100.185 59.2676C100.122 59.0131 100.062 58.7623 99.9946 58.519C100.084 58.5115 100.129 58.5078 100.133 58.5115Z" fill="var(--sapContent_Illustrative_Color16)"/>
<path d="M107.554 45.2998C107.289 45.7151 107.255 46.2876 107.536 47.5298C107.805 48.7347 107.304 48.4653 107.304 48.4653C107.304 48.4653 106.747 47.0135 106.168 45.9733C105.906 45.5056 105.559 45.4569 105.805 46.0593C106.142 46.8676 106.59 48.4316 106.713 48.9779C106.792 49.3184 106.897 49.7637 106.276 49.6926C105.555 49.6102 104.613 49.5878 103.679 49.599C103.758 49.7936 103.829 49.9994 103.9 50.2164C104.886 50.2426 105.548 50.3099 105.548 50.4072C106.138 52.6635 104.853 52.6635 104.834 53.5016C104.83 53.6887 104.905 54.4071 104.927 54.5605C105.021 55.2153 104.554 55.0283 104.554 55.0283C103.982 52.9928 103.298 51.3501 102.756 50.2052C102.655 49.9956 102.562 49.8011 102.476 49.6252C102.315 49.3034 102.177 49.0378 102.069 48.8357C101.785 48.3044 101.418 48.4466 101.635 48.8993C101.755 49.15 101.867 49.397 101.971 49.6477C101.269 49.6813 100.678 49.7262 100.327 49.7711C99.4639 49.8759 99.5462 50.3099 100.421 50.2688C101.026 50.2389 101.635 50.2201 102.211 50.2089C102.711 51.4399 103.077 52.6261 103.343 53.6887C103.051 53.655 101.714 53.5765 99.875 53.6476C99.961 53.8459 100.047 54.0629 100.137 54.2986C101.172 54.3061 102.33 54.351 103.526 54.4558C103.769 55.5409 103.903 56.4576 103.978 57.1049C104.042 57.6624 103.619 58.1526 103.063 58.1713C102.689 58.1825 102.289 58.1938 102.001 58.205C101.773 58.2125 101.609 58.4033 101.628 58.6278C101.725 59.7428 101.781 60.0534 101.818 60.4725C101.882 61.1198 101.392 60.9589 101.392 60.9589C100.701 58.1601 99.8974 55.915 99.2248 54.2986C99.1351 54.0853 99.0491 53.8833 98.9669 53.6925C98.6231 52.9104 98.3317 52.3118 98.1224 51.9151C97.8122 51.324 97.4722 51.6046 97.7487 52.1359C97.7487 52.1359 98.0327 52.7046 98.4363 53.7261C97.5917 53.7935 96.6912 53.8908 95.7607 54.033C94.8788 54.1677 94.8937 54.5306 95.7607 54.467C95.7719 54.452 96.9229 54.3398 98.6605 54.3061C99.0678 55.38 99.5536 56.8131 99.9946 58.5193C99.5461 58.5417 98.0514 58.6615 95.9961 58.9196C96.0746 59.1404 96.1605 59.3799 96.2427 59.6343C97.5618 59.4772 98.8922 59.3499 100.185 59.2676C100.536 60.7232 100.847 62.3508 101.048 64.1019C101.082 64.3751 100.876 64.6183 100.604 64.6333C99.8526 64.6744 98.4774 64.7605 97.9991 64.8578C97.532 64.9513 97.659 65.1908 97.7039 65.6959C97.7487 66.2272 97.8122 66.5977 97.8421 67.129C97.8645 67.477 97.8085 67.8175 97.4572 67.8511C97.4161 67.8586 97.3937 67.8586 97.3937 67.8586C97.3937 67.8586 96.4744 63.5033 95.1777 59.7653C95.0955 59.5296 95.0096 59.2938 94.9274 59.0656C94.479 57.857 93.9969 56.7495 93.4924 55.93C93.1449 55.3613 92.7189 55.5259 93.0589 56.0535C93.0589 56.0535 93.5522 57.1648 94.2099 59.1666C92.8347 59.3649 91.3175 59.6194 89.7518 59.9337C89.8489 60.1282 89.9461 60.3265 90.0433 60.5361C91.3997 60.3041 92.8908 60.0684 94.4341 59.8588C94.8713 61.2433 95.3608 62.9682 95.8279 64.985C95.4767 65.0074 93.9894 65.1646 91.8706 65.4714C91.9379 65.7071 92.0014 65.9391 92.0612 66.1748C93.328 65.9915 94.6471 65.8231 95.9886 65.6884C96.2241 66.7698 96.452 67.926 96.6613 69.1495C96.8182 70.07 96.9042 70.9867 96.9453 71.5105C96.9639 71.7575 96.7883 71.9745 96.5417 72.0119C95.9139 72.1017 94.7442 72.2739 94.0043 72.3973C93.739 72.4422 93.5111 72.6967 93.4999 72.9661C93.4625 74.0587 93.7652 74.7584 93.2981 74.8519C93.2532 74.8594 93.1337 74.8706 92.9991 74.8744V74.8107C92.9991 74.8107 92.3713 70.5714 91.1643 66.3133C91.0971 66.0776 91.0298 65.8381 90.9588 65.6024C90.4282 63.8288 89.7966 62.0964 89.0679 60.7082C88.967 60.5099 88.8624 60.3228 88.7541 60.1395C88.6793 60.0085 88.6008 59.885 88.5224 59.7615C88.1636 59.1965 87.7488 59.3537 88.0889 59.885C88.0889 59.885 88.1486 60.0085 88.2533 60.248C86.9977 60.5323 85.7346 60.8504 84.5164 61.2171C84.0605 61.3555 83.8214 61.5239 83.8999 61.6062C83.9709 61.681 84.2885 61.6848 84.9312 61.5389C85.7832 61.3443 87.0201 61.0861 88.4924 60.8167C88.8923 61.7783 89.5238 63.4658 90.1479 65.7296C88.7578 65.9503 87.1958 66.2235 85.5627 66.5528C85.6412 66.7773 85.7197 67.0205 85.7982 67.2749C87.1509 66.998 88.6868 66.7099 90.3422 66.4405C90.7944 68.1842 91.2316 70.2309 91.553 72.5246L90.1404 72.8201C90.1404 72.8201 87.846 71.1177 85.63 69.8081C85.4133 69.0036 85.1741 68.2103 84.9125 67.4545C84.8303 67.2113 84.7481 66.9718 84.6621 66.7398C84.1502 65.3517 83.5934 64.1244 83.0553 63.2451C82.9058 62.9944 82.7377 62.8859 82.6256 62.8859C82.4798 62.8859 82.4275 63.0692 82.6218 63.3686C82.6218 63.3686 83.2347 64.6333 83.9783 66.8858C82.9619 67.1103 81.9343 67.3535 80.9104 67.6192C78.2011 66.6575 78.0741 67.2712 79.1428 67.563C81.7586 68.2777 87.9319 71.2037 91.7847 75.4319C93.2458 77.0371 93.8138 79.1025 90.1479 83.529L69.2326 68.839C69.2326 68.839 70.7834 67.6266 72.0278 66.6613C72.9396 65.9541 73.672 65.7296 74.6997 65.8531C74.8417 65.7558 80.0621 61.9804 86.3624 57.4155C96.1979 50.295 108.675 41.255 108.675 41.255C108.735 41.2101 108.799 41.1727 108.858 41.139C108.87 41.1352 108.881 41.1315 108.892 41.1278C109.512 40.922 109.935 41.719 109.329 42.5421C108.937 43.0772 108.141 44.3756 107.554 45.2998Z" fill="var(--sapContent_Illustrative_Color15)"/>
<path d="M84.2102 67.6041C84.3709 68.1205 84.5353 68.6817 84.6997 69.2804C84.4008 69.1158 84.1093 68.9699 83.8328 68.8389C83.1863 68.5358 82.6071 68.2814 82.0914 68.0681C82.6818 67.9371 83.3956 67.7762 84.2102 67.6041Z" fill="var(--sapContent_Illustrative_Color15)"/>
<path d="M83.8325 68.8388C83.186 68.5358 82.6068 68.2813 82.0911 68.068C82.6815 67.9371 83.3953 67.7762 84.2099 67.6041C84.3706 68.1204 84.535 68.6817 84.6994 69.2804C84.4005 69.1157 84.109 68.9698 83.8325 68.8388Z" fill="var(--sapContent_Illustrative_Color16)"/>
<path d="M110.686 42.7779C110.686 42.7779 97.0237 79.6002 96.8182 80.1614C97.2218 81.3738 97.2218 81.9388 96.4259 83.8321C95.6374 85.6992 95.0357 86.9639 95.0357 86.9639L90.1479 83.529C93.8138 79.1025 93.2458 77.0371 91.7847 75.4319C87.9319 71.2038 81.7586 68.2777 79.1428 67.5631C78.0741 67.2712 78.2011 66.6576 80.9103 67.6192C81.9343 67.3535 82.9619 67.1103 83.9783 66.8858C83.2347 64.6333 82.6218 63.3686 82.6218 63.3686C82.4275 63.0693 82.4798 62.8859 82.6256 62.8859C82.7377 62.8859 82.9058 62.9944 83.0553 63.2451C83.5934 64.1244 84.1502 65.3517 84.6621 66.7399C84.7481 66.9719 84.8303 67.2113 84.9125 67.4546C85.1741 68.2104 85.4133 69.0036 85.63 69.8081C87.846 71.1177 90.1404 72.8202 90.1404 72.8202L91.553 72.5246C91.2316 70.2309 90.7944 68.1842 90.3422 66.4405C88.6868 66.71 87.1509 66.9981 85.7982 67.275C85.7197 67.0205 85.6412 66.7773 85.5627 66.5528C87.1958 66.2235 88.7578 65.9504 90.1479 65.7296C89.5238 63.4659 88.8923 61.7784 88.4924 60.8167C87.0201 61.0861 85.7832 61.3443 84.9312 61.5389C84.2885 61.6848 83.9708 61.6811 83.8998 61.6062C83.8214 61.5239 84.0605 61.3555 84.5164 61.2171C85.7346 60.8504 86.9977 60.5324 88.2533 60.248C88.1486 60.0085 88.0889 59.8851 88.0889 59.8851C87.7488 59.3537 88.1636 59.1966 88.5224 59.7616C88.6008 59.885 88.6793 60.0085 88.7541 60.1395C88.8624 60.3228 88.967 60.5099 89.0679 60.7082C89.7966 62.0964 90.4282 63.8288 90.9588 65.6024C91.0298 65.8381 91.0971 66.0776 91.1643 66.3133C92.3713 70.5714 92.9954 74.8108 92.9954 74.8108V74.8744C93.1337 74.8706 93.2532 74.8594 93.2981 74.8519C93.7652 74.7584 93.4625 74.0587 93.4999 72.9661C93.5111 72.6967 93.739 72.4423 94.0043 72.3974C94.7442 72.2739 95.9139 72.1018 96.5417 72.012C96.7883 71.9746 96.9639 71.7575 96.9453 71.5106C96.9042 70.9867 96.8182 70.07 96.6613 69.1496C96.452 67.926 96.2241 66.7698 95.9886 65.6885C94.6471 65.8232 93.328 65.9915 92.0612 66.1749C92.0014 65.9392 91.9379 65.7072 91.8706 65.4714C93.9894 65.1646 95.4767 65.0075 95.8279 64.985C95.3608 62.9682 94.8713 61.2433 94.4341 59.8589C92.8908 60.0684 91.3997 60.3041 90.0433 60.5361C89.9461 60.3266 89.8489 60.1283 89.7518 59.9337C91.3175 59.6194 92.8347 59.365 94.2099 59.1666C93.5522 57.1648 93.0589 56.0535 93.0589 56.0535C92.7189 55.5259 93.1449 55.3613 93.4924 55.9301C93.9969 56.7495 94.479 57.857 94.9274 59.0656C95.0096 59.2939 95.0955 59.5296 95.1777 59.7653C96.4744 63.5033 97.3937 67.8587 97.3937 67.8587C97.3937 67.8587 97.4161 67.8587 97.4572 67.8512C97.8085 67.8175 97.8645 67.477 97.8421 67.129C97.8122 66.5977 97.7487 66.2273 97.7039 65.6959C97.659 65.1908 97.532 64.9513 97.9991 64.8578C98.4774 64.7605 99.8526 64.6745 100.604 64.6333C100.876 64.6183 101.082 64.3751 101.048 64.102C100.847 62.3508 100.536 60.7232 100.185 59.2677C98.8922 59.35 97.5618 59.4772 96.2427 59.6344C96.1605 59.3799 96.0746 59.1404 95.9961 58.9197C98.0514 58.6615 99.5461 58.5418 99.9946 58.5193C99.5536 56.8131 99.0678 55.38 98.6605 54.3061C96.9229 54.3398 95.7719 54.4521 95.7607 54.467C94.8937 54.5306 94.8788 54.1677 95.7607 54.033C96.6912 53.8908 97.5917 53.7935 98.4363 53.7262C98.0327 52.7047 97.7487 52.1359 97.7487 52.1359C97.4722 51.6046 97.8122 51.324 98.1224 51.9152C98.3317 52.3118 98.6231 52.9105 98.9669 53.6925C99.0491 53.8833 99.1351 54.0854 99.2248 54.2987C99.8974 55.9151 100.701 58.1601 101.392 60.9589C101.392 60.9589 101.882 61.1198 101.818 60.4725C101.781 60.0534 101.725 59.7429 101.628 58.6278C101.609 58.4033 101.773 58.2125 102.001 58.205C102.289 58.1938 102.689 58.1826 103.063 58.1713C103.619 58.1526 104.042 57.6625 103.978 57.105C103.903 56.4576 103.769 55.5409 103.526 54.4558C102.33 54.351 101.172 54.3061 100.137 54.2987C100.047 54.0629 99.961 53.8459 99.875 53.6476C101.714 53.5765 103.051 53.6551 103.343 53.6888C103.077 52.6261 102.711 51.44 102.211 50.209C101.635 50.2202 101.026 50.2389 100.421 50.2688C99.5461 50.31 99.4639 49.8759 100.327 49.7712C100.678 49.7263 101.269 49.6814 101.971 49.6477C101.867 49.397 101.755 49.15 101.635 48.8994C101.418 48.4466 101.785 48.3044 102.069 48.8357C102.177 49.0378 102.315 49.3035 102.476 49.6252C102.562 49.8011 102.655 49.9957 102.756 50.2052C103.298 51.3502 103.982 52.9928 104.554 55.0283C104.554 55.0283 105.021 55.2154 104.927 54.5606C104.905 54.4072 104.83 53.6888 104.834 53.5017C104.853 52.6635 106.138 52.6635 105.548 50.4073C105.548 50.31 104.886 50.2426 103.9 50.2164C103.829 49.9994 103.758 49.7936 103.679 49.5991C104.613 49.5878 105.555 49.6103 106.276 49.6926C106.897 49.7637 106.792 49.3184 106.713 48.9779C106.59 48.4316 106.142 46.8676 105.805 46.0594C105.559 45.457 105.906 45.5056 106.168 45.9733C106.747 47.0135 107.304 48.4653 107.304 48.4653C107.304 48.4653 107.805 48.7347 107.536 47.5299C107.255 46.2876 107.289 45.7151 107.554 45.2998C108.141 44.3756 108.937 43.0772 109.329 42.5422C109.935 41.719 109.512 40.922 108.892 41.1278C109.909 40.6376 111.104 41.6367 110.686 42.7779Z" fill="var(--sapContent_Illustrative_Color16)"/>
<path d="M40.4062 94.3616C42.5113 94.3616 44.2178 93.8205 44.2178 93.153C44.2178 92.4855 42.5113 91.9444 40.4062 91.9444C38.3012 91.9444 36.5946 92.4855 36.5946 93.153C36.5946 93.8205 38.3012 94.3616 40.4062 94.3616Z" fill="var(--sapContent_Illustrative_Color21)"/>
<path d="M56.0635 99.2851C56.0635 97.519 52.5022 96.0859 48.1076 96.0859C43.7131 96.0859 40.1518 97.519 40.1518 99.2851C40.1518 101.051 43.7131 102.484 48.1076 102.484C52.5022 102.484 56.0635 101.051 56.0635 99.2851Z" fill="var(--sapContent_Illustrative_Color21)"/>
<path d="M124.273 88.337C121.07 88.5952 110.842 89.4969 103.073 90.1854C96.5863 87.5812 86.0707 86.3838 74.2024 86.3838C54.5053 86.3838 60.6562 90.017 60.6562 97.5828C60.6562 102.806 43.2423 108.961 54.4417 111.27C57.4312 111.887 70.4729 113.014 69.8526 110.024C70.4729 110.147 73.085 110.645 74.946 110.645C94.1872 110.645 109.165 105.07 109.848 97.7624C116.138 94.7316 126.377 89.8075 127.244 89.4707C129.131 88.7373 127.558 88.0751 124.273 88.3407V88.337Z" fill="var(--sapContent_Illustrative_Color21)"/>
<path d="M98.0584 98.8251C98.0584 99.7829 97.8267 100.849 97.3521 101.919C98.4246 96.479 93.7684 94.7803 91.5151 94.4697C89.8933 94.335 94.8484 93.7999 95.7228 88.7112C95.6107 90.4361 95.237 92.0974 94.6466 93.6727C96.6795 94.6605 98.0584 96.595 98.0584 98.8251Z" fill="var(--sapContent_Illustrative_Color8)"/>
<path d="M91.5148 94.4693C93.7681 94.7798 98.4243 96.4786 97.3518 101.919C96.2419 104.452 93.8017 107 89.9826 108.198C84.5679 109.896 78.417 110.518 72.95 110.308V110.259C75.1921 110.353 77.1689 110.076 77.9275 109.777C81.4065 108.407 79.3288 104.905 76.4364 104.673C68.6077 104.052 66.104 102.862 68.0509 102.933C71.5299 103.057 76.1263 102.559 78.6749 100.879C81.2234 99.1988 80.7937 95.7751 78.0545 95.7153C74.3662 95.6329 73.4544 96.3775 75.5247 94.72C85.4124 86.8025 81.0141 69.3099 71.4104 68.1687C74.9791 68.3708 79.4708 69.5831 82.8975 71.5325C89.0297 75.0198 94.6649 81.4069 95.6403 85.5976C95.7897 86.245 95.7599 86.9297 95.7599 87.6107C95.7599 87.9811 95.7487 88.3478 95.7225 88.7108C94.8481 93.7995 89.893 94.3346 91.5148 94.4693Z" fill="var(--sapContent_Illustrative_Color25)"/>
<path d="M78.0542 95.7157C80.7933 95.7756 81.2231 99.1993 78.6745 100.879C76.126 102.559 71.5296 103.057 68.0506 102.934C66.1036 102.862 68.6073 104.052 76.4361 104.673C79.3284 104.905 81.4062 108.408 77.9271 109.777C77.1686 110.076 75.1917 110.353 72.9496 110.26C70.8308 110.174 68.4765 109.755 66.6828 108.718C65.0685 107.783 61.7726 105.732 59.9714 105.295C58.1927 104.868 57.2397 105.295 58.1702 105.792C60.8869 107.244 57.8152 110.507 52.8489 110.627C48.6262 110.151 46.5299 108.842 46.5299 106.997C46.5299 105.923 47.5874 105.212 49.142 104.786C47.0979 104.254 46.1973 103.214 46.1973 101.605C46.1973 101.429 46.2197 101.261 46.2534 101.093H46.2347C46.6569 99.8204 47.6509 99.536 48.2899 99.3302C48.488 99.2666 48.488 98.9935 48.2899 98.9224C47.2885 98.5445 46.6083 97.8298 46.6083 97.8298C46.6083 100.153 44.7885 100.834 43.3535 101.014C39.7213 100.524 39.4036 98.8663 39.4036 97.5417C39.4036 94.9674 41.9522 93.9085 44.9118 93.4333C45.5657 90.2715 47.3034 88.2847 49.9155 87.6935C49.8968 88.6252 49.9342 89.6841 50.0874 90.7393C50.0874 90.7393 52.6994 90.7393 53.5066 93.2275C53.5066 93.2275 52.3146 95.0647 51.84 96.2995C51.7839 96.4416 51.9296 96.5838 52.0679 96.5202C52.9311 96.1199 55.2331 95.3715 57.9161 97.0852C57.9161 97.0852 58.9737 92.3557 62.576 92.9169C62.0192 95.0946 64.9377 97.7662 69.5976 94.5334C70.8271 93.6802 69.1679 94.4136 67.1761 94.4698C65.0648 94.5334 61.9407 93.1751 63.1365 89.9086C63.5924 88.6626 64.5454 87.918 65.1021 87.1509C65.9429 85.9948 66.1036 84.9733 65.0648 83.832C63.7569 82.4027 63.8839 80.7414 63.7569 79.9556L50.1696 84.6964C51.6046 76.2513 59.1643 69.3104 68.8951 68.2178C69.6499 68.1318 70.4982 68.1205 71.4063 68.1692C81.01 69.3104 85.4083 86.803 75.5206 94.7204C73.4503 96.378 74.3621 95.6334 78.0504 95.7157H78.0542ZM57.5088 104.643C57.6023 104.666 57.6919 104.692 57.7816 104.715C57.7741 104.666 57.7629 104.614 57.7592 104.565C57.677 104.591 57.5948 104.617 57.5088 104.643Z" fill="var(--sapContent_Illustrative_Color8)"/>
<path d="M72.9502 110.26V110.309C67.9054 110.118 63.4436 109.212 60.6783 107.787C60.4728 109.56 58.638 111.087 53.9033 110.728C53.5371 110.702 53.1858 110.668 52.8495 110.627C57.8158 110.507 60.8875 107.244 58.1708 105.793C57.2403 105.295 58.1933 104.868 59.972 105.295C61.7732 105.733 65.0691 107.783 66.6834 108.719C68.4771 109.755 70.8314 110.174 72.9502 110.26Z" fill="var(--sapContent_Illustrative_Color25)"/>
<path d="M67.181 94.4694C69.1727 94.4132 70.8319 93.6799 69.6025 94.533C64.9426 97.7658 62.0241 95.0942 62.5809 92.9166C58.9785 92.3553 57.921 97.0848 57.921 97.0848C55.2379 95.3711 52.936 96.1195 52.0728 96.5198C51.9345 96.5834 51.7888 96.4413 51.8448 96.2991C52.3194 95.0643 53.5115 93.2271 53.5115 93.2271C52.7043 90.7389 50.0922 90.7389 50.0922 90.7389C49.939 89.6837 49.9016 88.6248 49.9203 87.6931C49.9203 87.6894 49.9278 87.6894 49.9315 87.6894C49.9315 87.6632 49.9315 87.637 49.9315 87.6108C49.9315 87.4574 49.9315 87.3077 49.939 87.158C49.939 87.1281 49.939 87.0982 49.9428 87.0682C49.9652 86.5332 50.0026 86.0617 50.0399 85.6801C50.0437 85.6427 50.0474 85.6052 50.0511 85.5716C50.0847 85.276 50.1296 84.9878 50.1782 84.696L63.7655 79.9552C63.8925 80.741 63.7655 82.4023 65.0734 83.8317C66.1122 84.9729 65.9515 85.9944 65.1107 87.1506C64.5539 87.9176 63.601 88.6622 63.1451 89.9082C61.9493 93.1747 65.0734 94.533 67.1847 94.4694H67.181Z" fill="var(--sapContent_Illustrative_Color25)"/>
<path d="M49.9392 87.0688C49.9504 86.6011 49.9841 86.1371 50.0365 85.6806C49.9991 86.0623 49.9617 86.5338 49.9392 87.0688Z" fill="var(--sapContent_Illustrative_Color8)"/>
<path d="M48.294 98.9227C48.4883 98.9938 48.4883 99.2669 48.294 99.3305C47.655 99.5363 46.6609 99.8207 46.2387 101.093C45.8388 101.142 45.4353 101.16 45.0429 101.149C44.4151 101.13 43.8583 101.085 43.3613 101.014C44.7963 100.835 46.6161 100.154 46.6161 97.8301C46.6161 97.8301 47.2962 98.5447 48.2977 98.9227H48.294Z" fill="var(--sapContent_Illustrative_Color25)"/>
<path d="M40.9065 92.3032C40.9065 93.1338 40.6076 93.6839 38.4552 93.6839C36.3027 93.6839 36 93.1338 36 92.3032C36 91.4725 37.0987 90.799 38.4552 90.799C39.8116 90.799 40.9065 91.4725 40.9065 92.3032Z" fill="var(--sapContent_Illustrative_Color8)"/>
<path d="M63.8027 80.0385C64.0942 81.1236 62.5695 82.0366 62.0651 82.9832C61.7325 83.6044 61.4448 84.435 61.1533 85.2619C60.4059 85.595 59.2063 85.3892 57.4238 87.5856C57.2594 87.7876 57.1249 87.9822 57.0091 88.1618C56.1272 87.8138 55.1631 86.9495 53.9448 83.8326C53.0854 81.6325 50.406 80.8467 49.9875 83.1441C49.6549 84.9851 51.9082 89.1795 55.8619 89.6996C55.6937 89.8156 55.4881 89.9129 55.2303 89.9915C55.0846 90.0364 54.9276 90.0663 54.7558 90.085V90.0551C53.1377 89.9915 51.3664 88.5285 50.8395 87.8774C47.4314 83.6605 49.2177 78.9908 50.903 79.7878C54.3185 81.408 56.8671 79.4772 58.6047 77.4866C59.9537 75.9451 61.2616 75.9712 62.3304 77.0676C62.947 77.7935 63.4627 78.7626 63.8027 80.0385ZM62.3341 79.4772C62.7227 79.0881 62.5284 78.22 61.9604 77.6737C61.1533 76.8955 60.4395 76.8955 60.1891 77.2996C59.9462 77.6962 60.447 78.3921 60.9664 78.9796C61.4634 79.5409 62.0837 79.7279 62.3341 79.4772Z" fill="var(--sapContent_Illustrative_Color23)"/>
<path d="M61.9599 77.6733C62.5279 78.2196 62.7223 79.0876 62.3336 79.4768C62.0833 79.7275 61.463 79.5404 60.966 78.9791C60.4465 78.3917 59.9458 77.6957 60.1887 77.2991C60.439 76.895 61.1528 76.895 61.9599 77.6733Z" fill="var(--sapContent_Illustrative_Color25)"/>
<path d="M62.3299 77.0674C61.2611 75.9711 59.9533 75.9449 58.6042 77.4865C56.8666 79.4771 54.318 81.4078 50.9025 79.7877C49.2172 78.9907 47.431 83.6603 50.839 87.8773C51.3659 88.5283 53.1372 89.9913 54.7515 90.0549V90.0849C52.898 90.2682 49.7404 88.7191 48.6268 84.7379C47.2778 79.9149 49.348 75.9299 54.9795 75.8888C56.7508 74.987 60.1737 74.5343 62.3299 77.0674ZM56.8666 78.1712C57.9204 76.8953 58.7089 76.1282 57.9204 76.117C55.3756 76.0871 54.1013 77.9542 54.5049 78.7624C55.0467 79.8475 56.0669 79.1329 56.8666 78.1712Z" fill="var(--sapContent_Illustrative_Color8)"/>
<path d="M57.9203 76.1169C58.7088 76.1281 57.9203 76.8951 56.8665 78.1711C56.0668 79.1327 55.0466 79.8474 54.5048 78.7623C54.1012 77.954 55.3755 76.0869 57.9203 76.1169Z" fill="var(--sapContent_Illustrative_Color23)"/>
<path d="M57.0084 88.1612C56.5675 88.8348 56.3769 89.3474 55.8612 89.6991C51.9076 89.179 49.6543 84.9845 49.9869 83.1436C50.4054 80.8462 53.0847 81.6319 53.9442 83.8321C55.1624 86.9489 56.1265 87.8133 57.0084 88.1612Z" fill="var(--sapContent_Illustrative_Color22)"/>
<path d="M54.4605 78.6689C54.4605 78.6689 53.885 73.5353 47.1437 68.5289C46.4449 68.0088 47.3306 66.7253 48.0742 67.3165C48.8216 67.9077 54.6922 73.4305 55.406 79.2788C54.9725 79.3724 54.5838 79.2938 54.4568 78.6727L54.4605 78.6689Z" fill="var(--sapContent_Illustrative_Color22)"/>
</svg>
