<svg width="45" height="45" viewBox="0 0 45 45" fill="none" xmlns="http://www.w3.org/2000/svg" id="sapIllus-Phone-with-Icon-Demo-ExtraSmall">
<path d="M16.0428 23.8795L1.73785 26.304C-0.10643 26.6134 -0.760596 27.4198 1.15987 28.3531L22.3953 38.7599C23.0968 39.1036 23.8324 39.3786 24.5864 39.5795L25.4349 39.8043C25.519 39.8254 25.6057 39.8228 25.6872 39.7963L42.5011 34.3497C42.9109 34.2175 42.9214 33.6385 42.5168 33.4904L16.2661 23.898C16.1952 23.8715 16.119 23.8636 16.0428 23.8768V23.8795Z" fill="var(--sapContent_Illustrative_Color21)"/>
<path d="M43.7543 33.9452L28.2198 39.7302C26.4333 40.3965 24.4261 39.799 23.286 38.2655L4.14699 12.5685C3.40876 11.577 3.83173 10.1466 4.99031 9.72351L19.8733 5.13089C21.7044 4.46196 23.7562 5.07801 24.9227 6.6459L44.5266 31.3144C45.2071 32.2292 44.8209 33.5459 43.7569 33.9425L43.7543 33.9452Z" fill="var(--sapContent_Illustrative_Color16)"/>
<path d="M44.8629 32.5253L44.9995 30.6349L3.94731 9.38507L3.77917 11.6774L24.4603 38.9106L44.8655 32.5253H44.8629Z" fill="var(--sapContent_Illustrative_Color16)"/>
<path d="M43.8909 32.1976L28.3564 37.9827C26.5699 38.6489 24.5627 38.0514 23.4225 36.5179L4.28359 10.8235C3.54535 9.832 3.96833 8.4016 5.12691 7.97856L20.0072 3.38594C21.8384 2.71701 23.3175 2.7408 25.0566 4.90095L44.6606 29.5694C45.3411 30.4843 44.9549 31.7983 43.8909 32.1976Z" fill="var(--sapContent_Illustrative_Color15)"/>
<path d="M43.2104 31.9226L28.2408 37.356C26.3019 37.9985 24.9122 37.126 24.1739 36.1557L4.96666 10.8685C4.2836 9.91134 4.35453 8.89076 5.48684 8.46243L20.509 3.77727C21.7517 3.31457 23.3043 3.69002 24.103 4.75819L43.9565 29.3632C44.8839 30.5372 44.256 31.5392 43.2131 31.9173H43.2104V31.9226Z" fill="var(--sapContent_Illustrative_Color8)"/>
<path d="M17.7111 6.83905L12.1441 8.6449C11.4899 8.88551 10.7569 8.70307 10.2893 8.1822L9.20166 6.97125L17.3406 4.5282L18.226 5.51441C18.691 6.03263 18.6201 6.63811 17.7111 6.83905Z" fill="var(--sapContent_Illustrative_Color15)"/>
<path d="M32.8435 23.7398L24.9439 26.7984C23.73 27.2687 22.1949 26.8871 21.5497 25.9554L18.2635 21.2048C17.8159 20.557 17.9475 19.7909 18.59 19.2643L22.158 16.33C22.2765 16.2353 22.4398 16.1791 22.6214 16.1732L27.9853 16.0017C28.9174 15.9721 29.8074 16.3418 30.2709 16.9453L33.6677 21.3675C34.3339 22.2342 33.9679 23.302 32.8435 23.7398ZM20.0225 21.4799L22.8163 25.4732C23.0928 25.8696 23.7458 26.0323 24.2646 25.8341L32.151 22.8199C32.6355 22.6365 32.7961 22.178 32.5117 21.8053L29.6363 18.0249L27.3823 21.0746C26.9399 21.6781 26.0341 22.0123 25.0677 21.9236L20.0251 21.4769L20.0225 21.4799ZM19.4037 20.4002L25.1704 20.9208C25.5785 20.9593 25.9709 20.8143 26.1631 20.5599L28.7778 17.0843C28.5909 16.9926 28.3644 16.9364 28.1353 16.9482L23.0243 17.1198L19.6565 19.9299C19.4985 20.063 19.4142 20.2346 19.409 20.4061L19.4037 20.4002Z" fill="var(--sapContent_Illustrative_Color13)"/>
</svg>
