<svg width="128" height="128" viewBox="0 0 128 128" fill="none" xmlns="http://www.w3.org/2000/svg" id="sapIllus-UnknownFolder-Demo-Small">
<rect y="41" width="128" height="55" rx="8" fill="var(--sapContent_Illustrative_Color20)"/>
<path d="M70.2244 81.8607C69.0546 81.3848 67.8292 81.1152 66.6277 81.1826L52.138 81.8964L50.2584 81.2222C49.3146 80.8178 47.5936 80.7186 46.4159 80.7583L30.9427 81.4126C29.3962 81.4879 29.1186 81.7893 29.9672 82.2096L31.7834 82.9551L24.8479 83.3437C23.3846 83.427 22.8493 83.8037 23.0357 84.1567C23.1665 84.4025 23.6305 84.5849 24.5505 84.8387L44.5997 91.4769C46.8917 92.2501 47.4707 92.8568 52.4671 92.2501L85.6658 88.5107C86.9307 88.3283 86.9268 87.7573 85.6816 87.2457L70.2442 81.8329L70.2283 81.8646L70.2244 81.8607Z" fill="var(--sapContent_Illustrative_Color21)"/>
<path d="M37.586 53.7004C34.804 54.629 33.9682 56.9041 34.9665 59.125C36.5103 62.5609 46.2956 83.4199 47.2939 85.1378C48.4585 87.1382 51.6429 87.8657 51.6429 87.8657L37.586 53.7004Z" fill="var(--sapContent_Illustrative_Color22)"/>
<path d="M42.26 47.3781C42.26 47.3781 39.2768 48.0204 40.1126 50.4232C40.9483 52.826 41.1186 53.3328 41.1186 53.3328L42.26 53.0194V47.382V47.3781Z" fill="var(--sapContent_Illustrative_Color22)"/>
<path d="M60.4763 47.3237L59.5477 44.6965C59.2652 43.3771 58.0464 42.6032 56.8276 42.9631L42.3877 47.285C41.1611 47.6526 40.3641 48.7746 40.7858 50.1676L41.5867 52.4852L37.6749 53.6576C36.5993 53.9788 35.7906 54.83 35.4308 55.8669C35.1212 56.7569 35.2218 57.7396 35.6165 58.5986L47.4796 83.9188C47.9671 84.979 48.2031 85.5439 49.1936 86.31L51.3565 87.6681C51.8905 88.0009 52.5134 88.1595 53.1441 88.1208L53.6665 88.0202L93.8561 75.0699C95.4928 74.5669 95.2723 70.5623 94.9782 68.8327L85.0382 42.4872C84.4229 40.5293 83.03 40.5409 81.2927 41.0633L60.4686 46.2713V47.3237H60.4763Z" fill="var(--sapContent_Illustrative_Color15)"/>
<path d="M49.0118 86.2444L51.1747 87.6025C51.7086 87.9352 52.5212 88.1635 53.148 88.1248L53.6587 87.9584L93.8639 75.0739C95.5005 74.5709 95.28 70.5663 94.9859 69.8814L85.2316 42.998L38.3559 58.0996C36.9359 58.4943 36.224 59.8408 36.8276 61.1834L47.4796 83.9267C47.9671 84.9869 48.0174 85.4821 49.0079 86.2444H49.0118Z" fill="var(--sapContent_Illustrative_Color16)"/>
<path fill-rule="evenodd" clip-rule="evenodd" d="M82.5464 33L83.4982 37.7824L82.6431 37.9526L81.6913 33.1702L82.5464 33Z" fill="var(--sapContent_Illustrative_Color22)"/>
<path fill-rule="evenodd" clip-rule="evenodd" d="M87.8046 33.7779L85.7268 38.1927L84.9375 37.8251L87.0153 33.4104L87.8046 33.7779Z" fill="var(--sapContent_Illustrative_Color22)"/>
<path fill-rule="evenodd" clip-rule="evenodd" d="M91.4185 38.1L86.9728 40.1352L86.6091 39.342L91.0548 37.3068L91.4185 38.1Z" fill="var(--sapContent_Illustrative_Color22)"/>
<path d="M70.6446 46.9479L70.5324 43.6165C70.2654 42.3706 68.9112 41.4807 67.5221 41.9489L53.4884 46.1238C52.2928 46.4836 51.7279 47.4819 51.8711 49.0257L52.2155 52.2023L48.0522 53.4328C46.3304 53.9474 45.3437 55.5724 45.7345 57.6696L50.1106 85.6209C50.3389 87.1686 52.2425 88.515 53.8754 88.0082L92.8888 75.8162C94.4674 75.3249 96.0422 73.7733 95.9958 71.2312L94.1153 43.2954C93.8058 41.531 92.2001 40.4902 90.5324 40.9893L70.6523 46.9479H70.6485H70.6446Z" fill="var(--sapContent_Illustrative_Color26)"/>
<path d="M70.958 46.898L70.5865 43.8142C70.3234 42.5877 69.1704 41.8719 68.0058 42.224L54.1926 46.337C53.0164 46.6891 52.5482 47.5442 52.5985 49.1886L52.8423 52.3343L49.0852 53.4563C47.3905 53.9632 46.5006 55.5341 46.8217 57.5113L50.7916 85.3039C51.2017 86.8787 52.8307 87.7416 54.4364 87.2386L93.6974 74.9731C95.249 74.4895 96.019 73.1507 95.9996 71.2354L94.065 43.2957C93.7593 41.5623 92.1807 40.5409 90.5401 41.0322L70.9657 46.9019H70.9619L70.958 46.898Z" fill="var(--sapContent_Illustrative_Color27)"/>
<path d="M74.3352 58.48C73.6443 58.3649 72.8548 58.4224 71.9953 58.6527C70.8973 58.9447 69.9761 59.43 69.2523 60.1003C68.5285 60.7665 68.0021 61.5602 67.6773 62.4526L67.6197 62.613L69.3798 63.0941L69.4579 62.9214C69.7581 62.247 70.1241 61.6918 70.5436 61.2682C70.9548 60.857 71.51 60.5568 72.1968 60.3758C72.6286 60.2607 73.0357 60.2319 73.414 60.2936C73.7842 60.3512 74.0885 60.4992 74.3229 60.7377C74.5573 60.9721 74.6971 61.2929 74.7382 61.6877C74.7711 62.0249 74.7423 62.3374 74.6519 62.6089C74.5573 62.8844 74.4257 63.1435 74.253 63.3696C74.0761 63.6041 73.8376 63.8796 73.5456 64.1839C73.5456 64.1839 73.5333 64.1962 73.5251 64.2045C73.4716 64.2538 73.4058 64.3237 73.3236 64.4142C72.9206 64.8378 72.5916 65.2079 72.353 65.5245C72.1022 65.8494 71.9007 66.236 71.7485 66.6678C71.5964 67.1037 71.5388 67.5972 71.584 68.1277L71.6005 68.3004L73.5456 67.7822L73.5333 67.6177C73.5045 67.3052 73.5456 67.0132 73.6484 66.75C73.7554 66.4786 73.8911 66.236 74.0515 66.0304C74.2242 65.8124 74.4792 65.5163 74.8123 65.1626C75.2523 64.7144 75.6142 64.3073 75.8938 63.9577C76.1817 63.5917 76.4161 63.164 76.5929 62.6829C76.7697 62.1976 76.8314 61.6589 76.7739 61.0832C76.704 60.3676 76.4572 59.7795 76.0336 59.3354C75.6101 58.8871 75.0384 58.6034 74.3434 58.4882L74.3352 58.48Z" fill="var(--sapContent_Illustrative_Color16)"/>
<path d="M72.8853 69.0873C72.5029 69.1901 72.1986 69.3875 71.9765 69.6795C71.7544 69.9714 71.6598 70.2881 71.6968 70.6253C71.7339 70.9625 71.8901 71.2298 72.1615 71.3861C72.433 71.5424 72.7578 71.5753 73.1403 71.4725C73.5227 71.3697 73.8147 71.1764 74.0327 70.8885C74.2506 70.6006 74.3452 70.2799 74.3082 69.9303C74.2712 69.5808 74.1232 69.3422 73.8558 69.1819C73.5885 69.0215 73.2637 68.9886 72.8894 69.0873H72.8853Z" fill="var(--sapContent_Illustrative_Color16)"/>
<path d="M71.401 54.5411C65.0432 56.2189 60.4785 62.3916 61.2187 68.1777C61.9425 73.8364 67.4942 77.0276 73.6011 75.4032C79.7039 73.7788 84.281 67.9022 83.8039 62.186C83.3269 56.4698 77.7505 52.8632 71.401 54.5411ZM73.4202 73.6678C68.3496 75.0166 63.4517 72.4793 63.168 67.6596C62.5758 62.8769 66.351 57.7899 71.5943 56.404C76.8334 55.0181 81.8917 57.9749 81.8588 62.7001C82.2741 67.4334 78.4825 72.3189 73.4161 73.6678H73.4202Z" fill="var(--sapContent_Illustrative_Color16)"/>
</svg>
