<svg width="45" height="45" viewBox="0 0 45 45" fill="none" xmlns="http://www.w3.org/2000/svg" id="sapIllus-UnknownFolder-Demo-ExtraSmall">
<g clip-path="url(#clip0_3_669)">
<path d="M29.189 34.2879C28.4659 33.9938 27.7086 33.8271 26.9659 33.8688L18.01 34.31L16.8482 33.8933C16.2648 33.6433 15.2011 33.582 14.4732 33.6065L4.90935 34.011C3.95345 34.0575 3.78188 34.2438 4.3064 34.5036L5.42896 34.9644L1.14215 35.2046C0.237733 35.2561 -0.0931527 35.4889 0.0220445 35.7071C0.102928 35.859 0.389695 35.9718 0.958328 36.1286L13.3506 40.2316C14.7673 40.7096 15.1251 41.0846 18.2134 40.7096L38.7332 38.3983C39.5151 38.2855 39.5126 37.9326 38.743 37.6164L29.2012 34.2708L29.1914 34.2904L29.189 34.2879Z" fill="var(--sapContent_Illustrative_Color21)"/>
<path d="M24.0201 9.98346L23.6426 8.92272C23.4711 8.12138 22.7308 7.65139 21.9906 7.86994L13.2206 10.4948C12.4756 10.7181 11.9915 11.3996 12.2477 12.2456L12.626 13.4044L10.2502 14.1164C9.5969 14.3115 9.10576 14.8285 8.88721 15.4583C8.69922 15.9987 8.76032 16.5956 9.00001 17.1173L15.0469 34.677C15.343 35.3209 15.4864 35.664 16.088 36.1293L17.4016 36.9541C17.7259 37.1562 18.1042 37.2526 18.4873 37.2291L18.8045 37.168L43.2134 29.3026C44.2074 28.9971 43.9849 26.6531 43.8063 25.6026L38.9376 7.046C38.5639 5.85692 37.7179 5.86397 36.6628 6.18121L24.0201 9.98346Z" fill="var(--sapContent_Illustrative_Color29)"/>
<path d="M30.7408 11.8805C30.581 11.1355 29.8807 10.7008 29.1734 10.9146L20.7841 13.4126C20.0697 13.6265 19.7853 14.1458 19.8159 15.1446L19.9639 17.0551L17.6821 17.7366C16.6528 18.0444 16.1124 18.9985 16.3074 20.1994L17.1326 35.9727C17.3817 36.9292 18.371 37.4532 19.3462 37.1477L43.1912 29.6983C44.1335 29.4046 44.6011 28.5915 44.5894 27.4283L45.0003 11.5656C44.8146 10.5128 43.8559 9.8924 42.8595 10.1908L30.9711 13.7557L30.7408 11.8805Z" fill="var(--sapContent_Illustrative_Color26)"/>
<path d="M31.7636 27.5721C32.144 27.4672 32.4622 27.4936 32.7245 27.6444C32.9834 27.7985 33.1306 28.0278 33.1601 28.3719C33.1896 28.7163 33.0946 29.031 32.8749 29.3163C32.6519 29.6049 32.3602 29.7989 31.9765 29.9071C31.593 30.0152 31.2717 29.9953 31.0029 29.8446C30.7341 29.6938 30.5833 29.4315 30.5536 29.1005C30.5241 28.7692 30.6194 28.4574 30.8456 28.1688C31.0719 27.8803 31.3767 27.6833 31.7636 27.5751V27.5721ZM31.1728 16.9589C32.0149 16.7383 32.6774 16.6615 33.373 16.7694L33.3847 16.7714L33.4853 16.7919C34.1757 16.9029 34.7439 17.1754 35.1728 17.6229C35.6043 18.0733 35.8442 18.6555 35.9042 19.3544C35.9518 19.9136 35.8864 20.4356 35.704 20.9188C35.5275 21.3836 35.2935 21.7997 35.0038 22.1581V22.159C34.7228 22.5032 34.3639 22.8928 33.9296 23.3299C33.5915 23.6848 33.3388 23.971 33.1679 24.1825C33.007 24.3844 32.8724 24.6165 32.7656 24.8798C32.6652 25.1269 32.6219 25.395 32.6445 25.6903L32.6601 25.8885L30.6142 26.452L30.5947 26.1571C30.559 25.6343 30.6209 25.1476 30.7861 24.7069C30.945 24.2803 31.1499 23.9036 31.4062 23.5809C31.6513 23.2724 31.9767 22.9095 32.3808 22.4969C32.459 22.4145 32.5142 22.3578 32.5497 22.3212L32.5898 22.2801L32.6015 22.2684C32.8964 21.9708 33.1318 21.7052 33.3095 21.4764C33.4787 21.2557 33.6096 21.0144 33.705 20.7489C33.7954 20.4973 33.8289 20.2132 33.8007 19.8954C33.7683 19.5262 33.6439 19.2519 33.4423 19.0526C33.2315 18.8443 32.9585 18.7124 32.6093 18.66C32.2547 18.6068 31.8617 18.6333 31.4335 18.7469C30.7411 18.9294 30.1972 19.2211 29.79 19.618C29.3711 20.0263 29.002 20.5564 28.6894 21.2196L28.6044 21.4012L26.7245 20.9149L26.8232 20.661C27.1659 19.7822 27.7056 19.0193 28.4365 18.3671C29.1731 17.7096 30.0868 17.242 31.1728 16.9589ZM35.6464 20.159C35.6354 20.241 35.6206 20.3216 35.6035 20.4012C35.6206 20.3216 35.6354 20.241 35.6464 20.159Z" fill="var(--sapContent_Illustrative_Color29)"/>
</g>
<defs>
<clipPath id="clip0_3_669">
<rect width="45" height="45" fill="var(--sapContent_Illustrative_Color8)"/>
</clipPath>
</defs>
</svg>
